<?xml version="1.0" encoding="utf-8"?>
<!-- Generator: Adobe Adobe Illustrator 24.2.0, SVG Export Plug-In . SVG Version: 6.00 Build 0)  -->
<svg version="1.1" id="Layer_1" xmlns="http://www.w3.org/2000/svg" xmlns:xlink="http://www.w3.org/1999/xlink" x="0px" y="0px"
	 viewBox="0 0 1196.69 1296" style="enable-background:new 0 0 1196.69 1296;" xml:space="preserve">
<style type="text/css">
	.st0{font-family:'Helvetica-BoldOblique';}
	.st1{font-size:162.8882px;}
	.st2{letter-spacing:1;}
	.st3{fill:url(#SVGID_1_);}
	.st4{fill:none;}
	.st5{fill:url(#SVGID_2_);}
	.st6{fill:url(#SVGID_3_);}
	.st7{fill:url(#SVGID_4_);}
</style>
<text transform="matrix(1 0 0 1 326.1968 1164.6553)" class="st0 st1 st2">Alerter</text>
<g>
	<linearGradient id="SVGID_1_" gradientUnits="userSpaceOnUse" x1="1123.926" y1="1359.1208" x2="62.6317" y2="177.7412">
		<stop  offset="0" style="stop-color:#05D0F5"/>
		<stop  offset="0.1833" style="stop-color:#3AA6F2"/>
		<stop  offset="0.4808" style="stop-color:#8C67ED"/>
		<stop  offset="0.7257" style="stop-color:#C739EA"/>
		<stop  offset="0.9051" style="stop-color:#EC1CE8"/>
		<stop  offset="1" style="stop-color:#FA11E7"/>
	</linearGradient>
	<path class="st3" d="M576.37,0C659.1,0.78,740.54-1.73,821.5,3.44c59.9,3.82,102.61,41.03,132.13,92.78
		c61.24,107.39,122.25,214.91,183.74,322.15c44.08,76.89,31.25,148.55-13.43,221.15c-55.13,89.57-106.09,181.71-158.79,272.77
		c-2.4,4.14-4.21,8.63-8.65,17.85c22.39,0,41.28-0.03,60.18,0c119.47,0.19,199.78,99.35,175.76,217.01
		c-20.02,98.06-82.4,148.85-182.89,148.85c-277.68-0.01-555.37,0.01-833.05-0.09c-92.32-0.03-165.61-64.47-174.94-153.4
		C-9.8,1034.3,41.75,952.05,137.3,932.65c29.71-6.03,61.67-0.94,97.88-0.94c-40.89-72.09-78.7-138.8-116.57-205.48
		c-20.34-35.82-40.9-71.51-61.14-107.38c-36.98-65.51-37.62-130.98,0.37-196.44c63.53-109.49,126.96-219.04,190.4-328.57
		c36.99-63.87,93.14-93.69,165.99-93.78C467.78-0.02,521.33,0.01,576.37,0z M1069.62,657.86c12.44-21.47,24.99-42.88,37.31-64.42
		c27.44-47.98,30.98-97.27,3.59-145.97c-64.97-115.5-130.25-230.84-197.1-345.26C891,63.84,854.78,38.84,809.99,38.13
		c-134.74-2.12-269.54-1.46-404.31-1.02c-59.06,0.19-100.77,30.17-129.77,80.42C214.15,224.58,152.22,331.52,89.99,438.29
		c-31.17,53.47-33.1,106.56-1.91,160.8c50.23,87.36,99.89,175.04,149.68,262.66c18.16,31.97,36,64.12,56.25,100.21
		c-45.46,0-85.96-0.63-126.44,0.18c-39.71,0.79-73.44,16.57-98.82,47.14c-43.47,52.37-46.47,112.3-21.73,172.01
		c24.85,59.99,76.61,82.66,139.14,82.68c225.08,0.06,450.17,0.22,675.25-0.38c63.85-0.17,129.39,5.85,191.12-6.38
		c84.35-16.71,120.02-87.91,105.77-183.11c-9.86-65.86-71.41-112.32-148.82-112.33c-36.85-0.01-73.71,0-115.24,0
		C954.27,857.87,1011.48,758.86,1069.62,657.86z"/>
</g>
<rect x="798.69" y="549.42" class="st4" width="0" height="0"/>
<g>
	<linearGradient id="SVGID_2_" gradientUnits="userSpaceOnUse" x1="268.5013" y1="278.7108" x2="883.5961" y2="893.8057">
		<stop  offset="0" style="stop-color:#05D0F5"/>
		<stop  offset="1" style="stop-color:#FA11EC"/>
	</linearGradient>
	<path class="st5" d="M969.16,692.93l-317.5-536.5c-19.3-27.61-57.33-34.36-84.94-15.06c-5.86,4.1-10.96,9.19-15.06,15.06
		l-317.5,536.5c-15.19,27.57-5.15,62.24,22.43,77.43c8.44,4.65,17.93,7.08,27.57,7.07h633c31.46,1.16,57.9-23.41,59.06-54.87
		C976.59,712.23,974.15,701.99,969.16,692.93L969.16,692.93z M286.16,720.43l315.5-536l315.5,536H286.16z"/>
	<linearGradient id="SVGID_3_" gradientUnits="userSpaceOnUse" x1="342.3356" y1="204.4747" x2="978.3566" y2="785.0619">
		<stop  offset="0" style="stop-color:#05D0F5"/>
		<stop  offset="1" style="stop-color:#FA11EC"/>
	</linearGradient>
	<path class="st6" d="M567.66,324.93h62.5v227.5h-62.5V324.93z"/>
	<linearGradient id="SVGID_4_" gradientUnits="userSpaceOnUse" x1="239.0157" y1="317.241" x2="870.0588" y2="895.8085">
		<stop  offset="0" style="stop-color:#05D0F5"/>
		<stop  offset="1" style="stop-color:#FA11EC"/>
	</linearGradient>
	<ellipse class="st7" cx="599.16" cy="647.43" rx="33.5" ry="35"/>
</g>
</svg>
