<?xml version="1.0" encoding="utf-8"?>
<!-- Generator: Adobe Adobe Illustrator 24.2.0, SVG Export Plug-In . SVG Version: 6.00 Build 0)  -->
<svg version="1.1" id="Layer_1" xmlns="http://www.w3.org/2000/svg" xmlns:xlink="http://www.w3.org/1999/xlink" x="0px" y="0px"
	 viewBox="0 0 1197.19 1296" style="enable-background:new 0 0 1197.19 1296;" xml:space="preserve">
<style type="text/css">
	.st0{font-family:'Helvetica-BoldOblique';}
	.st1{font-size:143.6655px;}
	.st2{letter-spacing:1;}
	.st3{fill:url(#SVGID_1_);}
	.st4{fill:url(#SVGID_2_);}
</style>
<text transform="matrix(1 0 0 1 93.1889 1148.6396)" class="st0 st1 st2">Avid Reviewer</text>
<g>
	<linearGradient id="SVGID_1_" gradientUnits="userSpaceOnUse" x1="1122.926" y1="1357.3708" x2="61.6317" y2="175.9912">
		<stop  offset="0" style="stop-color:#05D0F5"/>
		<stop  offset="0.1833" style="stop-color:#3AA6F2"/>
		<stop  offset="0.4808" style="stop-color:#8C67ED"/>
		<stop  offset="0.7257" style="stop-color:#C739EA"/>
		<stop  offset="0.9051" style="stop-color:#EC1CE8"/>
		<stop  offset="1" style="stop-color:#FA11E7"/>
	</linearGradient>
	<path class="st3" d="M575.37-1.75C658.1-0.97,739.54-3.48,820.5,1.69c59.9,3.82,102.61,41.03,132.13,92.78
		c61.24,107.39,122.25,214.91,183.74,322.15c44.08,76.89,31.25,148.55-13.43,221.15c-55.13,89.57-106.09,181.71-158.79,272.77
		c-2.4,4.14-4.21,8.63-8.65,17.85c22.39,0,41.28-0.03,60.18,0c119.47,0.19,199.78,99.35,175.76,217.01
		c-20.02,98.06-82.4,148.85-182.89,148.85c-277.68-0.01-555.37,0.01-833.05-0.09c-92.32-0.03-165.61-64.47-174.94-153.4
		C-10.8,1032.55,40.75,950.3,136.3,930.9c29.71-6.03,61.67-0.94,97.88-0.94c-40.89-72.09-78.7-138.8-116.57-205.48
		c-20.34-35.82-40.9-71.51-61.14-107.38c-36.98-65.51-37.62-130.98,0.37-196.44c63.53-109.49,126.96-219.04,190.4-328.57
		C284.23,28.2,340.38-1.61,413.23-1.7C466.78-1.77,520.33-1.74,575.37-1.75z M1068.62,656.11c12.44-21.47,24.99-42.88,37.31-64.42
		c27.44-47.98,30.98-97.27,3.59-145.97c-64.97-115.5-130.25-230.84-197.1-345.26C890,62.09,853.78,37.09,808.99,36.38
		c-134.74-2.12-269.54-1.46-404.31-1.02c-59.06,0.19-100.77,30.17-129.77,80.42C213.15,222.83,151.22,329.77,88.99,436.54
		c-31.17,53.47-33.1,106.56-1.91,160.8C137.31,684.7,186.97,772.39,236.76,860c18.16,31.97,36,64.12,56.25,100.21
		c-45.46,0-85.96-0.63-126.44,0.18c-39.71,0.79-73.44,16.57-98.82,47.14c-43.47,52.37-46.47,112.3-21.73,172.01
		c24.85,59.99,76.61,82.66,139.14,82.68c225.08,0.06,450.17,0.22,675.25-0.38c63.85-0.17,129.39,5.85,191.12-6.38
		c84.35-16.71,120.02-87.91,105.77-183.11c-9.86-65.86-71.41-112.32-148.82-112.33c-36.85-0.01-73.71,0-115.24,0
		C953.27,856.12,1010.48,757.11,1068.62,656.11z"/>
</g>
<g>
	<g>
		<linearGradient id="SVGID_2_" gradientUnits="userSpaceOnUse" x1="377.7022" y1="233.7928" x2="900.9288" y2="757.0194">
			<stop  offset="0" style="stop-color:#05D0F5"/>
			<stop  offset="1" style="stop-color:#F411EC"/>
		</linearGradient>
		<path class="st4" d="M228.65,428.92c1.96-1.57,1.43-3.7,1.9-5.4c3.57-12.84,10.97-23.15,20.75-31.95
			c16.62-14.94,36.3-24.3,57.12-31.65c20.54-7.24,41.63-12.1,63.05-16.01c19.46-3.55,39.05-5.2,58.65-7.23
			c31.4-3.26,62.86-2.5,94.31-2.65c7.39-0.04,14.7,0.83,22.03,1.52c1.95,0.18,3.07-0.16,4.32-1.64c10.48-12.4,20.72-25.05,31.7-37
			c10.88-11.84,22.1-23.38,33.59-34.67c10.72-10.53,21.8-20.62,33.08-30.53c15.23-13.37,31.25-25.7,47.98-37.15
			c15.87-10.87,32.52-20.3,50.24-27.75c15.64-6.59,31.81-10.91,48.99-10.87c28.05,0.08,49.69,16.36,57.93,43.06
			c5.83,18.88,5.43,37.95,3.86,57.25c-1.33,16.42-5.12,32.33-9.21,48.17c-4.13,16.01-9.53,31.65-15.24,47.17
			c-1.92,5.2-5.45,9.37-11.67,9.78c-5.66,0.37-9.61-2.33-12.34-7.17c-1.89-3.35-1.75-6.86-0.5-10.2
			c8.9-23.69,16.75-47.68,21.05-72.68c2.15-12.52,4.35-25.08,4-37.85c-0.31-11.25-1.99-22.38-6.6-32.68
			c-5.33-11.91-14.97-18.36-28.05-19.23c-17.72-1.18-33.81,4.73-49.49,11.96c-15.92,7.34-30.79,16.59-45.05,26.73
			c-11.74,8.35-23.03,17.27-34.05,26.58c-11.6,9.81-22.77,20.08-33.77,30.52c-14.37,13.64-27.86,28.15-41.01,42.97
			c-3.35,3.77-6.77,7.5-10.02,11.36c-1.34,1.58-3.27,2.87-3.45,5.46c5.64,2.33,11.74,1.83,17.56,2.31
			c15.88,1.3,31.56,3.88,47.32,5.98c8.78,1.17,17.55,2.57,26.24,4.25c17.1,3.3,34.22,6.39,51.19,10.36
			c23.7,5.54,47.17,11.93,70.3,19.41c25.82,8.35,51.13,18.16,75.46,30.23c20.76,10.3,40.82,21.92,58.45,37.2
			c15.81,13.7,29.87,28.83,34.91,50.02c4.8,20.19,0.26,38.12-13.61,53.78c-12.47,14.08-27.91,23.67-44.82,31.36
			c-22.72,10.33-46.57,16.86-70.92,21.83c-6.43,1.31-12.14-0.52-14.88-4.74c-3.08-4.74-2.88-10.3,0.34-15.18
			c2.48-3.76,6.45-4.5,10.33-5.3c29.24-6.01,57.8-14.05,83.4-29.98c11.01-6.86,21.09-15.28,25.24-28.23
			c3.42-10.7,0.67-20.83-5.22-30.27c-5.43-8.7-12.42-15.95-20.02-22.68c-16.8-14.89-36.18-25.82-56.15-35.61
			c-20.49-10.04-41.66-18.56-63.39-25.7c-19.79-6.49-39.75-12.27-59.95-17.38c-22.84-5.78-45.93-10.17-69.04-14.62
			c-19.86-3.83-39.95-5.67-59.88-8.73c-14.04-2.15-28.35-2.53-42.54-3.74c-1.45-0.12-2.26,0.62-3.06,1.62
			c-10.29,12.79-20.02,25.99-29.68,39.24c-11.84,16.24-22.96,32.97-33.83,49.86c-8.87,13.78-17.14,27.95-25.33,42.17
			c-9.43,16.36-17.92,33.18-26.47,49.99c-1.72,3.39-3.16,6.91-4.76,10.44c2.14,1.83,4.45,1.98,6.63,2.53
			c9.64,2.42,19.16,5.3,28.9,7.35c7.28,1.54,11.16,7.99,9.8,15.33c-1.15,6.26-8.62,10.72-15.13,9.44c-12.49-2.46-24.68-6-36.93-9.34
			c-2.61-0.71-4.52-0.83-5.77,2.33c-8.67,21.94-16.8,44.05-22.62,66.94c-5.61,22.07-9.45,44.38-7.91,67.25
			c0.94,14.01,3.97,27.44,15.38,37.13c8.17,6.94,18.14,8.17,28.22,6.93c30.48-3.73,55.83-19.25,80.65-35.9
			c12.5-8.39,24.25-17.75,35.98-27.14c11.24-9,22.26-18.28,33.35-27.47c0.67-0.56,1.14-1.38,1.62-1.97
			c-0.71-2.23-2.57-2.4-4.11-2.87c-11.02-3.33-21.77-7.44-32.4-11.77c-6.89-2.81-13.71-5.95-19.5-11
			c-14.09-12.3-13.94-29.58-3.14-43.63c10.82-14.05,24.63-25.21,37.45-37.3c3.94-3.72,6.03-7.48,5.87-13.15
			c-0.42-14.29-0.38-28.6-0.13-42.9c0.16-9.38,1.42-18.68,6.29-27.01c4.65-7.96,11.53-12.18,20.92-12.88
			c14.13-1.04,25.37,6.03,36.85,12.42c10.57,5.89,20.92,12.2,31.34,18.36c2.67,1.58,5.31,1.85,8.36,0.93
			c14.19-4.32,28.35-8.76,42.68-12.58c10.26-2.73,20.83-4.51,31.08,0.11c12.54,5.66,17.24,16.32,17.62,29.35
			c0.35,11.87-2.16,23.46-4.01,35.09c-1.37,8.59-3.24,17.1-4.91,25.65c-0.81,4.16,1.93,6.89,3.96,9.89
			c10.74,15.84,23.39,30.45,31.57,47.92c4.97,10.61,6.19,21.69-0.91,32c-5.74,8.32-14.5,12.06-24.13,13.71
			c-16.14,2.78-32.4,4.62-48.75,5.67c-4.07,0.26-7.55,1.29-10.16,5.12c-6.65,9.75-13.57,19.33-20.68,28.76
			c-6.45,8.56-12.81,17.31-22.5,22.66c-9.02,4.98-18.1,5.04-27.12-0.05c-8.81-4.98-14.08-13.06-18.5-21.73
			c-4.73-9.28-9.05-18.77-13.57-28.16c-0.45-0.93-0.49-2.16-2.19-2.63c-6.08,4.9-12.38,9.96-18.65,15.04
			c-10.95,8.88-21.76,17.95-32.88,26.62c-11.48,8.95-23.34,17.41-35.75,25.07c-14.77,9.11-30,17.23-46.3,23.34
			c-11.42,4.27-23.1,7.02-35.6,7.87c-3.12,0.16-5.92,0.16-9.46,0c-1.66-0.25-2.57-0.37-3.49-0.44
			c-19.86-1.48-34.72-11.15-44.81-28.07c-8.14-13.65-10.7-28.87-11.13-44.52c-0.61-22.17,2.12-43.97,7.68-65.42
			c1.96-7.55,3.84-15.12,6.09-22.59c5.08-16.87,11.09-33.42,17.75-49.73c1.03-2.51,0.62-3.73-2.15-4.79
			c-9.42-3.62-19.09-6.51-28.52-10.14c-23.18-8.91-45.87-18.75-67.52-31.01c-20-11.32-38.67-24.29-54.16-41.38
			c-9.23-10.19-16.65-21.59-19.93-35.24c-0.5-2.07-0.46-4.31-1.9-6.08C228.65,441.08,228.65,435.21,228.65,428.92z M269.13,470.58
			c7.81,9.17,16.98,16.93,26.86,23.63c15.1,10.24,31.04,19.09,47.63,26.83c21.83,10.18,44.34,18.51,67.11,26.23
			c3.2,1.08,4.71,0.42,5.93-2.7c1.78-4.55,4.07-8.91,6.15-13.34c10.61-22.5,22.81-44.14,35.39-65.54
			c8.46-14.4,17.66-28.37,26.72-42.41c8.64-13.4,17.7-26.52,27.3-39.27c5.7-7.57,11.2-15.28,16.91-23.08
			c-2.57-0.98-4.93-1.35-7.38-1.3c-19.96,0.43-39.91-0.36-59.89,0.7c-24.17,1.28-48.23,2.82-72.22,6.46
			c-32.71,4.97-64.69,12.23-94.75,26.34c-14.55,6.83-27.91,15.63-36.52,29.84c-3.46,5.71-5.05,12.07-4.1,18.92
			C255.84,452.96,261.62,461.84,269.13,470.58z M733.45,657.92c6.85-0.63,13.74-1,20.55-1.99c6.03-0.88,12.16-1.28,18.03-3.28
			c3.7-1.26,4.85-3.02,3.5-6.86c-1.56-4.42-3.98-8.33-6.54-12.1c-7.32-10.78-14.8-21.46-22.44-32.02
			c-5.42-7.47-10.17-15.33-9.56-24.79c0.8-12.51,3.47-24.82,5.97-37.11c1.71-8.42,3.14-16.87,2.79-25.51
			c-0.11-2.67-0.39-5.6-3.73-5.97c-3.01-0.33-6.05-0.29-9.13,0.45c-15.79,3.79-31.09,9.28-46.71,13.63
			c-10.47,2.92-20.07,1.04-29.16-4.27c-10.06-5.88-19.87-12.18-29.96-17.99c-5.82-3.35-11.79-6.51-18.23-8.61
			c-3.3-1.07-4.86,0.11-5.42,3.39c-1.15,6.82-1.66,13.66-1.88,20.57c-0.36,11.53,1.27,23.03,0.8,34.53
			c-0.38,9.45-2.4,18.41-9.52,25.65c-9.03,9.18-18.94,17.42-28.04,26.51c-4.55,4.54-9.29,8.87-12.64,14.48
			c-2.02,3.39-1.25,5.93,1.9,7.74c3.71,2.13,7.45,4.34,11.43,5.86c13.74,5.25,27.52,10.38,41.4,15.22
			c9.42,3.28,16.12,9.35,20.31,18.22c5.17,10.95,10.19,21.97,15.11,33.04c2.69,6.05,5.94,11.79,9.54,17.3
			c3.57,5.47,6.3,5.77,10.8,1.04c3.59-3.76,6.86-7.86,9.95-12.06c7.71-10.5,15.04-21.3,22.91-31.67c3.73-4.91,8.64-8.83,14.92-10.16
			C717.72,659.62,725.09,658.26,733.45,657.92z"/>
	</g>
</g>
</svg>
