<?xml version="1.0" encoding="utf-8"?>
<!-- Generator: Adobe Adobe Illustrator 24.2.0, SVG Export Plug-In . SVG Version: 6.00 Build 0)  -->
<svg version="1.1" id="Layer_1" xmlns="http://www.w3.org/2000/svg" xmlns:xlink="http://www.w3.org/1999/xlink" x="0px" y="0px"
	 viewBox="0 0 1196.69 1296" style="enable-background:new 0 0 1196.69 1296;" xml:space="preserve">
<style type="text/css">
	.st0{fill:#e2e8f0;}
	.st1{font-size:162.8882px;}
	.st3{fill:url(#SVGID_1_);}
	.st4{fill:url(#SVGID_2_);}
	.st5{fill:url(#SVGID_3_);}
	.st6{fill:url(#SVGID_4_);}
</style>
<g>
	<text transform="matrix(1 0 0 1 144.5622 1163.8177)" class="st0 st1 st2">Beta Tester</text>
	<g>
		<linearGradient id="SVGID_1_" gradientUnits="userSpaceOnUse" x1="1123.926" y1="1359.1208" x2="62.6317" y2="177.7412">
			<stop  offset="0" style="stop-color:#05D0F5"/>
			<stop  offset="0.1833" style="stop-color:#3AA6F2"/>
			<stop  offset="0.4808" style="stop-color:#8C67ED"/>
			<stop  offset="0.7257" style="stop-color:#C739EA"/>
			<stop  offset="0.9051" style="stop-color:#EC1CE8"/>
			<stop  offset="1" style="stop-color:#FA11E7"/>
		</linearGradient>
		<path class="st3" d="M576.37,0C659.1,0.78,740.54-1.73,821.5,3.44c59.9,3.82,102.61,41.03,132.13,92.78
			c61.24,107.39,122.25,214.91,183.74,322.15c44.08,76.89,31.25,148.55-13.43,221.15c-55.13,89.57-106.09,181.71-158.79,272.77
			c-2.4,4.14-4.21,8.63-8.65,17.85c22.39,0,41.28-0.03,60.18,0c119.47,0.19,199.78,99.35,175.76,217.01
			c-20.02,98.06-82.4,148.85-182.89,148.85c-277.68-0.01-555.37,0.01-833.05-0.09c-92.32-0.03-165.61-64.47-174.94-153.4
			C-9.8,1034.3,41.75,952.05,137.3,932.65c29.71-6.03,61.67-0.94,97.88-0.94c-40.89-72.09-78.7-138.8-116.57-205.48
			c-20.34-35.82-40.9-71.51-61.14-107.38c-36.98-65.51-37.62-130.98,0.37-196.44c63.53-109.49,126.96-219.04,190.4-328.57
			c36.99-63.87,93.14-93.69,165.99-93.78C467.78-0.02,521.33,0.01,576.37,0z M1069.62,657.86c12.44-21.47,24.99-42.88,37.31-64.42
			c27.44-47.98,30.98-97.27,3.59-145.97c-64.97-115.5-130.25-230.84-197.1-345.26C891,63.84,854.78,38.84,809.99,38.13
			c-134.74-2.12-269.54-1.46-404.31-1.02c-59.06,0.19-100.77,30.17-129.77,80.42C214.15,224.58,152.22,331.52,89.99,438.29
			c-31.17,53.47-33.1,106.56-1.91,160.8c50.23,87.36,99.89,175.04,149.68,262.66c18.16,31.97,36,64.12,56.25,100.21
			c-45.46,0-85.96-0.63-126.44,0.18c-39.71,0.79-73.44,16.57-98.82,47.14c-43.47,52.37-46.47,112.3-21.73,172.01
			c24.85,59.99,76.61,82.66,139.14,82.68c225.08,0.06,450.17,0.22,675.25-0.38c63.85-0.17,129.39,5.85,191.12-6.38
			c84.35-16.71,120.02-87.91,105.77-183.11c-9.86-65.86-71.41-112.32-148.82-112.33c-36.85-0.01-73.71,0-115.24,0
			C954.27,857.87,1011.48,758.86,1069.62,657.86z"/>
	</g>
	<g>
		<linearGradient id="SVGID_2_" gradientUnits="userSpaceOnUse" x1="844.9341" y1="868.136" x2="380.0293" y2="199.4935">
			<stop  offset="0" style="stop-color:#FA11E7"/>
			<stop  offset="0.1835" style="stop-color:#D230E9"/>
			<stop  offset="0.5918" style="stop-color:#6E7EEF"/>
			<stop  offset="1" style="stop-color:#05D0F5"/>
		</linearGradient>
		<path class="st4" d="M287.49,582.58c-23.21-0.6-26.22-3.08-29.22-25.15c-4.44-32.59-3.67-65.22,0.65-97.76
			c1.41-10.61,8.07-15.54,20.73-16.07c12.83-0.54,25.73,0.55,39.71-1.28c9.11-26.32,17.79-52.99,33.23-76.81
			c-8.59-11.08-18.55-19.32-27.4-28.61c-11.01-11.56-11.8-17.09-2.15-30.11c20.46-27.58,44.54-51.64,72.69-71.42
			c9.88-6.94,15.7-6.58,24.52,2.14c9.48,9.38,18.17,19.57,27.65,29.9c27.41-13.79,53.11-25.84,81.96-32.26
			c0-13.34-0.05-25.24,0.01-37.14c0.1-18.3,3-22.36,20.24-25.18c31.61-5.17,63.37-4.66,94.98-0.14c16.51,2.36,19.98,6.96,21.01,23.7
			c0.76,12.34-1.28,24.81,1.57,38.46c26.06,8.01,51.99,17.31,74.65,30.84c7.74-1.19,10.7-6.28,14.56-10.06
			c6.58-6.45,12.67-13.45,19.55-19.56c7.9-7,14.02-7.59,22.55-1.49c29.48,21.08,55.22,46.07,75.96,75.89
			c7.03,10.11,6.02,14.82-3,24.27c-9.19,9.63-19.5,18.2-28.41,29.72c13.52,24.46,24.06,50.34,31.86,77.42
			c11.92,3.15,23.46,1.37,34.85,1.6c20,0.4,24.06,2.74,26.91,21.67c5.03,33.38,5.96,66.96,0.66,100.45
			c-1.85,11.71-8.11,16.37-21.53,16.92c-12.84,0.53-25.77-1.04-39.73,1.23c-8.84,26.37-17.74,52.99-32.62,77.18
			c5.95,11.38,16.05,18.28,24.16,26.85c13.91,14.69,14.5,19.37,2.04,35.38c-18.78,24.14-40.35,45.53-64.62,64.14
			c-15.1,11.58-19.34,10.97-33.08-2.1c-8.92-8.49-16.35-18.72-27.89-25.21c-24.01,14.4-49.77,24.15-76.72,31.85
			c-2.83,12.31-1.06,24.29-1.34,36.13c-0.46,19.72-4.61,23.96-23.82,26.4c-29.9,3.8-59.68,3.6-89.56-0.08
			c-17.77-2.19-22.48-6.82-22.95-24.39c-0.33-12.35,1.06-24.78-1.14-38.1c-27.14-7.44-53.13-17.78-77.82-31.89
			c-11.31,7.55-19.28,17.8-28.52,26.65c-12.05,11.54-16.16,12.17-29.67,2.05c-26.36-19.75-49.53-42.8-69.21-69.23
			c-9.58-12.87-9.03-17.03,1.94-28.65c8.81-9.33,18.89-17.49,27.22-28.76c-13.46-24.54-25.11-49.97-32.23-77.44
			C309.87,581,299.22,583.25,287.49,582.58z M374.34,684.56c-6.89,7.26-15.07,13.42-19.97,21.94c8.14,15.46,35.26,42.38,51.81,51.29
			c8.16-8.12,16.52-16.62,25.06-24.92c11.41-11.09,16.9-11.95,30.44-3.39c24.81,15.69,51.5,26.5,80.09,32.99
			c14.7,3.34,18.07,7.33,19.14,22.74c0.64,9.18,0.22,18.44,0.07,27.66c-0.13,8.07,3.74,11.94,11.7,11.93
			c16.6-0.02,33.21,0.13,49.8-0.12c8.27-0.12,12.87-4.36,12.29-13.11c-0.46-6.89-1.13-13.78-1.36-20.68
			c-0.62-18.61,3.15-24.88,18.99-28.47c29.08-6.6,56.07-17.83,81.34-33.6c12.32-7.68,17.78-6.8,28.18,3.13
			c8.95,8.55,17.67,17.34,27.27,26.78c20.66-15.37,37.89-32.61,52.8-51.96c-1.83-2.59-2.47-3.86-3.44-4.8
			c-6.62-6.42-13.27-12.8-19.98-19.12c-13.91-13.11-14.92-18.79-4.95-34.55c14.43-22.8,24.96-47.28,31.45-73.39
			c5.54-22.3,7.01-23.64,29.52-24.07c10.83-0.21,21.94,2.12,32.26-1.83c4.38-19.33,3.3-62.11-1.87-73.04
			c-10.16-2.6-20.78-0.96-31.3-1.03c-18.79-0.12-23.63-3.2-27.74-21.71c-6.07-27.37-17.52-52.34-31.8-76.19
			c-8.96-14.96-8.55-19,3.28-31.43c8.18-8.59,17.5-16.14,25.04-26.45c-15.45-19.46-32.2-36.84-52.28-51.26
			c-11.17,7.37-18.53,17.63-27.77,25.81c-10.5,9.3-17.67,10.45-28.59,3.36c-25.06-16.26-52.37-26.82-81.25-33.85
			c-15.83-3.85-17.37-6.29-17.8-22.89c-0.32-12.32,1.31-24.79-2.52-38.75c-23.23-0.84-46.37-1.55-68.95,0.24
			c-3.03,6.5-2.19,11.64-2.36,16.65c-0.29,8.28-0.54,16.57-0.82,24.85c-0.37,11.27-5.86,17.31-17.23,19.73
			c-28.16,6-54.42,16.93-79.12,31.88c-16.58,10.03-21.14,8.93-35.09-4.27c-7.93-7.5-14.44-16.61-24.63-22.58
			c-20.31,14.94-38.13,31.67-53.13,54.58c9.84,9.05,19.36,17.09,28.01,25.98c8.32,8.54,9.32,14.97,3.22,24.96
			c-16.72,27.39-29.07,56.47-36.12,87.79c-1.99,8.84-7.91,13.23-16.8,13.59c-5.53,0.22-11.08-0.1-16.6,0.18
			c-8.55,0.44-17.39-1.76-27.05,2.61c-0.95,23.64-1.3,47.31,0.32,71.26c13.55,3.42,25.98,1.59,38.27,1.9
			c16.42,0.42,20.43,2.92,23.8,18.84c5.89,27.87,17.42,53.32,31.92,77.58C390.44,664.92,390.17,667.91,374.34,684.56z"/>
		<linearGradient id="SVGID_3_" gradientUnits="userSpaceOnUse" x1="729.3807" y1="674.8883" x2="470.9482" y2="360.3938">
			<stop  offset="0" style="stop-color:#FA11E7;stop-opacity:0.7098"/>
			<stop  offset="0.4309" style="stop-color:#8B68ED;stop-opacity:0.8348"/>
			<stop  offset="0.8245" style="stop-color:#2BB3F3;stop-opacity:0.9491"/>
			<stop  offset="1" style="stop-color:#05D0F5"/>
		</linearGradient>
		<path class="st5" d="M441.86,418.99c31.76-49.61,76.23-79.16,133.42-85.71c98.09-11.24,182.27,53.61,199.25,146.03
			c7.94,43.22,2.02,84.8-20.54,122.6c-39.98,66.95-100.42,99.31-177.46,90.55c-78.81-8.96-131.54-54.91-154.15-131.47
			C407.89,511.9,415.81,464.33,441.86,418.99z M706.44,615.47c35.06-37.28,47.95-81.9,38.24-131.32
			c-16.51-84.01-96.65-135.35-180.53-118.02c-60.36,12.47-127.25,75.7-116.08,164.77c6.47,51.54,33.73,88.83,77.94,114.06
			C580.02,675.78,658.25,667.61,706.44,615.47z"/>
		<linearGradient id="SVGID_4_" gradientUnits="userSpaceOnUse" x1="696.0234" y1="585.8905" x2="536.3799" y2="426.2471">
			<stop  offset="0" style="stop-color:#FA11E7"/>
			<stop  offset="0.2912" style="stop-color:#B646EB"/>
			<stop  offset="0.9648" style="stop-color:#0EC9F4"/>
			<stop  offset="1" style="stop-color:#05D0F5"/>
		</linearGradient>
		<path class="st6" d="M667.64,450.03c8.67-5.47,15.88-4.61,21.73,2.45c4.83,5.84,3.53,15.71-3.51,22.46
			c-34.53,33.11-69.13,66.14-104.07,98.82c-9.28,8.68-16.35,8.38-25.39-0.6c-16.63-16.54-32.8-33.54-48.83-50.67
			c-7-7.49-7.08-16.12-1.31-22.23c6.16-6.51,15.28-6.4,23.22,1.15c9.33,8.87,18.06,18.37,27.14,27.51
			c3.84,3.87,7.2,8.36,14.56,11.68C602.73,510.91,634.76,480.78,667.64,450.03z"/>
	</g>
</g>
</svg>
