<?xml version="1.0" encoding="utf-8"?>
<!-- Generator: Adobe Adobe Illustrator 24.2.0, SVG Export Plug-In . SVG Version: 6.00 Build 0)  -->
<svg version="1.1" id="Layer_1" xmlns="http://www.w3.org/2000/svg" xmlns:xlink="http://www.w3.org/1999/xlink" x="0px" y="0px"
	 viewBox="0 0 1197.19 1296" style="enable-background:new 0 0 1197.19 1296;" xml:space="preserve">
<style type="text/css">
	.st0{font-family:'Helvetica-BoldOblique';}
	.st1{font-size:162.8882px;}
	.st2{letter-spacing:1;}
	.st3{fill:url(#SVGID_1_);}
	.st4{fill:url(#SVGID_2_);}
	.st5{fill:url(#SVGID_3_);}
</style>
<text transform="matrix(1 0 0 1 108.5885 1168.6553)" class="st0 st1 st2">Book Addict</text>
<g>
	<linearGradient id="SVGID_1_" gradientUnits="userSpaceOnUse" x1="1122.926" y1="1357.3708" x2="61.6317" y2="175.9912">
		<stop  offset="0" style="stop-color:#05D0F5"/>
		<stop  offset="0.1833" style="stop-color:#3AA6F2"/>
		<stop  offset="0.4808" style="stop-color:#8C67ED"/>
		<stop  offset="0.7257" style="stop-color:#C739EA"/>
		<stop  offset="0.9051" style="stop-color:#EC1CE8"/>
		<stop  offset="1" style="stop-color:#FA11E7"/>
	</linearGradient>
	<path class="st3" d="M575.37-1.75C658.1-0.97,739.54-3.48,820.5,1.69c59.9,3.82,102.61,41.03,132.13,92.78
		c61.24,107.39,122.25,214.91,183.74,322.15c44.08,76.89,31.25,148.55-13.43,221.15c-55.13,89.57-106.09,181.71-158.79,272.77
		c-2.4,4.14-4.21,8.63-8.65,17.85c22.39,0,41.28-0.03,60.18,0c119.47,0.19,199.78,99.35,175.76,217.01
		c-20.02,98.06-82.4,148.85-182.89,148.85c-277.68-0.01-555.37,0.01-833.05-0.09c-92.32-0.03-165.61-64.47-174.94-153.4
		C-10.8,1032.55,40.75,950.3,136.3,930.9c29.71-6.03,61.67-0.94,97.88-0.94c-40.89-72.09-78.7-138.8-116.57-205.48
		c-20.34-35.82-40.9-71.51-61.14-107.38c-36.98-65.51-37.62-130.98,0.37-196.44c63.53-109.49,126.96-219.04,190.4-328.57
		C284.23,28.2,340.38-1.61,413.23-1.7C466.78-1.77,520.33-1.74,575.37-1.75z M1068.62,656.11c12.44-21.47,24.99-42.88,37.31-64.42
		c27.44-47.98,30.98-97.27,3.59-145.97c-64.97-115.5-130.25-230.84-197.1-345.26C890,62.09,853.78,37.09,808.99,36.38
		c-134.74-2.12-269.54-1.46-404.31-1.02c-59.06,0.19-100.77,30.17-129.77,80.42C213.15,222.83,151.22,329.77,88.99,436.54
		c-31.17,53.47-33.1,106.56-1.91,160.8C137.31,684.7,186.97,772.39,236.76,860c18.16,31.97,36,64.12,56.25,100.21
		c-45.46,0-85.96-0.63-126.44,0.18c-39.71,0.79-73.44,16.57-98.82,47.14c-43.47,52.37-46.47,112.3-21.73,172.01
		c24.85,59.99,76.61,82.66,139.14,82.68c225.08,0.06,450.17,0.22,675.25-0.38c63.85-0.17,129.39,5.85,191.12-6.38
		c84.35-16.71,120.02-87.91,105.77-183.11c-9.86-65.86-71.41-112.32-148.82-112.33c-36.85-0.01-73.71,0-115.24,0
		C953.27,856.12,1010.48,757.11,1068.62,656.11z"/>
</g>
<g>
	<g>
		<linearGradient id="SVGID_2_" gradientUnits="userSpaceOnUse" x1="239.7342" y1="265.7155" x2="971.7023" y2="766.793">
			<stop  offset="0" style="stop-color:#05D0F5"/>
			<stop  offset="1" style="stop-color:#FA11EC"/>
		</linearGradient>
		<path class="st4" d="M598.34,140.16c-209.87,0-380,166.12-380,371.05s170.13,371.05,380,371.05s380-166.12,380-371.05
			S808.21,140.16,598.34,140.16z M598.34,835.87c-183.34,0-332.5-145.64-332.5-324.67c0-179.02,149.16-324.67,332.5-324.67
			s332.5,145.65,332.5,324.67C930.84,690.23,781.68,835.87,598.34,835.87z"/>
	</g>
</g>
<linearGradient id="SVGID_3_" gradientUnits="userSpaceOnUse" x1="372.3206" y1="211.6098" x2="837.4352" y2="802.3502">
	<stop  offset="0" style="stop-color:#05D0F5"/>
	<stop  offset="0.1846" style="stop-color:#2DB1F4"/>
	<stop  offset="0.5953" style="stop-color:#9262F0"/>
	<stop  offset="1" style="stop-color:#FA11EC"/>
</linearGradient>
<path class="st5" d="M580.16,743.23c-1.02,0-2.03,0-3.48-0.09c-5.61-2.59-9.96-6.32-14.63-9.59
	c-16.44-11.53-32.95-22.97-49.43-34.44c-16.41-11.41-32.82-22.82-49.25-34.21c-15.53-10.77-31.17-21.4-46.61-32.32
	c-15.99-11.31-32.06-22.53-48.26-33.54c-2.64-1.8-4.27-4.23-5.46-7.13c-1.16-2.83-1.26-5.98-2.73-8.7c0-7.13,0-14.25,0.11-21.83
	c0.53-1.66,1.1-2.84,1.34-4.07c0.93-4.69,2.79-9.01,5.23-13.07c2.71-4.52,5-5.32,10-3.74c4.27,1.35,6.63,0.53,9.03-3.21
	c0.73-1.14,1.35-2.35,2.12-3.7c-3.59-4.29-7.16-8.6-10.77-12.87c-2.35-2.78-5.29-5.26-6.33-8.82c-3.07-10.48-4.83-21.05-1.83-31.98
	c1.05-3.82,2.89-7.88,0.22-11.97c-1.62-2.48-2.41-5.35-3.23-8.19c-4.25-14.65-2.57-28.58,4.91-41.81c1.92-3.39,4.73-5.77,8.84-6.18
	c1.28-0.13,2.55-0.35,3.62-1.55c0.54-4.8,0.81-9.79,3.17-14.41c2.9-5.69,7.47-8.26,13.71-7.3c0.97,0.15,1.97,0.21,2.98-0.32
	c0.84-0.85,1.8-1.72,1.65-3.61c-3.12-2.09-6.4-4.43-9.8-6.54c-3.42-2.13-5.24-5.32-6.15-9.02c-2.4-9.83-3.72-19.77-1.17-29.77
	c2.08-8.15,6.41-15.13,11.49-21.46c8.3-1.67,16.28-3.31,24.27-4.88c6.45-1.27,12.92-2.48,19.37-3.7c7.91-1.49,15.83-2.86,23.69-4.61
	c7.19-1.6,14.44-2.89,21.67-4.28c9.44-1.82,18.9-3.58,28.34-5.4c6.84-1.32,13.64-2.9,20.51-4.02c8.34-1.36,16.55-3.34,24.84-4.92
	c7.23-1.37,14.49-2.57,21.67-4.15c3.72-0.82,7.67-0.75,11.13-2.65c1.4,0,2.81,0,4.63,0.13c6.33,3.06,12.21,6.05,18.15,8.91
	c23.92,11.53,47.84,23.06,71.78,34.52c17.43,8.35,34.94,16.56,52.37,24.92c18.33,8.79,36.6,17.71,54.91,26.55
	c6.63,3.2,13.34,6.24,19.96,9.48c3.78,1.85,5.18,8.51,2.12,10.8c-1.88,1.4-3.36,3.31-5.44,4.38c-8.63,4.43-14.13,16.96-11.07,27.79
	c0.76,0.42,1.65,1.04,2.64,1.44c8,3.28,16.01,6.56,24.04,9.75c2.86,1.14,4.86,2.9,5.3,6.08c0,0,0,0.3-0.04,0.65
	c-1.15,3.88-5.39,2.9-7.34,5.31c0.55,9.07-2.54,16.99-7.81,24.28c2.24,2.32,4.77,3.82,7.27,5.34c1.6,0.97,2.85,2.16,2.76,4.21
	c-0.11,2.24-1.97,2.86-3.57,3.48c-7.05,2.75-14.14,5.39-21.2,8.09c-5.59,2.13-11.16,4.31-16.85,6.51c-0.34,2.83-1.99,4.45-4.68,5.03
	c-2.49,0.53-4.99,1.05-7.57,1.59c-5.54,8.98-12.42,17.46-10.22,29.45c0.71,0.49,1.57,1.13,2.48,1.69
	c5.02,3.09,10.08,6.12,15.08,9.26c4.01,2.52,4.47,5.49,1.57,9.4c-11.31,3.37-22.65,6.74-34.05,10.14c0.33,2.66-0.04,4.71-2.35,6.08
	c-4.19-0.15-7.28,1.5-8.45,5.76c0.25,0.81,0.72,1.15,1.27,1.41c6.64,3.2,13.31,6.38,19.93,9.63c4.76,2.34,9.49,4.74,14.18,7.2
	c2.19,1.15,3.18,3.04,3.03,5.61c-0.14,2.37-1.56,3.45-3.51,4.22c-0.91,0.36-1.77,0.81-2.84,1.31c-0.42,6.05-4.37,9.83-8.75,13.33
	c-0.77,0.62-1.53,1.25-2.24,1.94c-4.83,4.65-4.16,11.86,1.36,15.63c4.96,3.39,9.99,6.69,14.7,10.39c3.77,2.96,5.45,9.12-0.57,11.72
	c-5.77,2.49-11.63,4.79-17.44,7.18c-22.82,9.39-45.66,18.75-68.47,28.18c-16.99,7.02-33.93,14.13-50.91,21.17
	c-9.9,4.1-19.82,8.15-29.74,12.2C599.64,735.32,589.9,739.27,580.16,743.23z M410.95,397.34c-1.94,1.6-4.12,2.27-6.6,1.56
	c-4.47-1.29-6.74-0.3-8.73,3.82c-1.94,4.01-2.48,8.42-2.31,12.68c0.21,5.17,1.79,9.53,7.6,12.09c12.75,5.62,25.13,12.11,37.63,18.31
	c21.31,10.57,42.58,21.23,63.89,31.79c18.49,9.17,37.03,18.24,55.53,27.39c21.32,10.55,42.6,21.18,63.95,31.67
	c2.83,1.39,5.49,3.4,8.67,3.67c0.93-1.03,0.5-1.99,0.26-2.75c-1.65-5.37-2.08-10.84-1.1-16.33c1.45-8.06,5.03-14.86,13.12-17.91
	c9.66-3.64,19.55-6.65,29.25-10.19c12.09-4.41,24.41-8.2,36.56-12.45c1.45-0.51,3.52-0.3,4.99-2.94
	c-29.3,7.69-57.8,15.17-86.1,22.59c-0.33,1.39,1.43,1.49,0.89,2.64c-1.05,0.79-2.03,0.28-3.01-0.19c-2.08-0.98-4.26-0.85-6.37-0.31
	c-7.52,1.91-15.14,3.54-22.48,5.99c-4.62,1.54-7.97,0.46-11.71-2.12c-14.9-10.3-29.96-20.39-44.96-30.54
	c-14.11-9.55-28.28-19.01-42.33-28.65c-13.73-9.42-27.45-18.81-42.71-25.7c-13.61-6.15-26.76-13.25-39.78-20.56
	c-1.51-0.85-3.56-1.41-3.29-3.86c1.49,0.06,2.87,0.54,4.28,1.03c7.87,2.75,15.28,6.59,23.04,9.63c-8.15-5.2-15.71-11.32-24.05-15.87
	C412.54,393.11,412.57,395.55,410.95,397.34z M481.55,426.67c34.67,23.03,69.35,46.06,104.1,69.14c0.47-1.12,0.18-1.76-0.01-2.42
	c-1.54-5.18-3.38-10.32-3.85-15.72c-1.25-14.19,4.07-26.21,12.74-37.03c0.76-0.95,1.67-1.62,2.89-1.92
	c3.62-0.89,7.22-1.85,10.84-2.76c6.95-1.76,13.91-3.51,20.86-5.25c9.51-2.39,19.02-4.78,28.54-7.16c8.76-2.19,17.52-4.36,26.29-6.52
	c8.86-2.19,17.73-4.33,26.59-6.56c7.52-1.89,14.99-3.95,22.51-5.82c8.76-2.19,17.56-4.24,26.33-6.38
	c9.06-2.22,18.11-4.44,27.14-6.74c5.37-1.37,10.71-2.91,16.08-4.38c-0.45-1.71-1.83-1.83-2.82-2.31
	c-19.69-9.65-39.41-19.26-59.13-28.86c-11.84-5.76-23.7-11.48-35.54-17.22c-23.74-11.51-47.46-23.04-71.2-34.54
	c-10.63-5.15-21.39-10.05-31.88-15.48c-3.64-1.88-6.83-1.77-10.46-0.73c-3.01,0.87-6.12,1.41-9.21,2.02
	c-7.22,1.45-14.46,2.84-21.68,4.29c-6.55,1.31-13.08,2.69-19.63,4c-7.12,1.42-14.27,2.75-21.38,4.2
	c-5.29,1.08-10.57,2.17-15.83,3.42c-7.54,1.79-15.21,3.07-22.82,4.58c-6.36,1.26-12.71,2.55-19.08,3.81
	c-9.25,1.84-18.51,3.64-27.75,5.5c-7.61,1.53-15.24,2.94-22.78,4.72c-3.54,0.83-7.4,0.77-9.68,5.01
	c-6.79,12.65-6.41,25.65-2.9,38.96c0.59,2.26,1.85,4.11,3.84,5.43c9.49,6.34,18.95,12.73,28.45,19.05
	C447.81,404.15,464.53,415.25,481.55,426.67z M519,574.71c9.93,7.64,19.86,15.29,29.78,22.93c0.29-0.12,0.58-0.24,0.87-0.35
	c-4.91-18.32-7.44-36.36,5.02-52.36c13.32-2.96,26.09-5.81,38.86-8.65c0.04-0.44,0.07-0.87,0.1-1.31
	c-46.92-23.56-93.83-47.11-140.75-70.67c-0.15,0.26-0.29,0.52-0.44,0.79c17.15,11.55,33.28,24.45,49.52,37.2
	c16.26,12.76,32.83,25.16,48.31,39.68c-2.61,1.12-3.83-0.21-5.09-0.93c-9.02-5.11-17.4-11.2-25.86-17.14
	c-18.15-12.73-36.13-25.69-54.14-38.62c-16.73-12-33.42-24.05-49.77-36.57c-6.79-5.2-13.27-10.94-21.48-13.86
	c-5.57-1.98-8.32-5.86-9.02-11.52c-0.12-0.98-0.47-1.96-1.97-2.03c-1.19,0.66-1.55,2.08-2.03,3.3c-1.46,3.65-2.91,7.29-4.12,11.03
	c-2.25,6.94-2.59,13.84-0.78,20.92c1.82,7.14,5.5,12.48,11.66,17c16.89,12.4,33.22,25.56,49.81,38.36
	c17.07,13.18,34.2,26.29,51.29,39.44C498.73,559.03,508.7,566.74,519,574.71z M510.76,673.3c-4.01-1-6.96-3.54-9.55-6.58
	c-6.57-7.73-13.11-15.5-19.69-23.23c-15.63-18.39-31.31-36.73-46.89-55.16c-4.97-5.88-10.01-11.41-17.04-15.16
	c-7.8-4.16-15.15-9.19-22.19-14.62c-0.98-0.76-2.22-1.35-2.34-3.46c7.87,1.77,14.23,6.37,21.37,9.33
	c-5.79-6.79-11.59-13.59-17.25-20.22c-1.92,0.01-2.86,0.99-3.59,2.22c-2.25,3.81-5.39,5.27-9.71,3.84
	c-1.29-0.43-2.64-0.71-3.79-1.02c-1.88,0.63-2.96,1.87-3.94,3.28c-3.55,5.17-4.42,11.24-4.76,17.14
	c-0.51,9.12,1.93,17.38,10.23,22.79c2.72,1.77,5.35,3.67,8.02,5.51c21.84,14.97,43.69,29.91,65.52,44.9
	c17.03,11.69,34.04,23.43,51.05,35.15c17.75,12.23,35.48,24.48,53.27,36.65c1.8,1.23,3.42,2.88,5.78,3.56
	c-0.67-4.47-1.42-8.7-1.9-12.96c-0.5-4.35,0.25-8.66,1.18-12.89c1.54-7.03,3.3-14.01,7.88-19.83c2.79-3.54,6.54-4.31,10.4-2.1
	c1.14,0.66,2.27,1.14,3.47,1.24c1.21-0.28,2.25-0.86,2.78-1.76c1.78-3.01,4.93-3.87,7.79-4.97c17.33-6.7,34.74-13.2,52.07-19.89
	c2.47-0.95,5.25-1.39,7.35-3.19c-0.09-0.29-0.17-0.58-0.25-0.88c-26.37,6.21-52.74,12.41-79.18,18.63c0.68,3.3,4.41,3.45,4.44,6.52
	c-2.55,0.72-4.42-0.87-6.37-1.72c-3.8-1.66-7.2-3.05-11.77-1.77c-13.14,3.67-26.46,6.72-39.77,9.78
	C519.46,673.33,515.44,674.97,510.76,673.3z M443.11,584.3c18.85,22.65,37.69,45.3,56.54,67.95c-0.19-1.14-0.4-2.1-0.72-3.03
	c-2.22-6.54-2.83-13.16-2.04-20.07c1.08-9.41,4.73-17.38,11.63-23.83c2.51-2.34,5.4-3.56,8.92-2.38c1.39,0.47,3.01,0.38,3.8-0.88
	c1.67-2.69,4.3-3.17,7.03-3.67c1.08-0.2,2.13-0.61,3.86-1.11c-15.01-11.36-29.42-22.26-43.97-33.29c-0.4,1.55,0.62,1.98,1.14,2.57
	c5.53,6.28,11.16,12.49,16.69,18.78c3.19,3.62,6.32,7.31,8.84,11.45c0.67,1.1,1.4,2.2,0.4,3.64c-2.35-0.16-3.74-1.92-5.27-3.37
	c-12.73-12.08-24.34-25.23-36.22-38.12c-10.33-11.2-20.59-22.41-33.05-31.47c-16.65-12.11-32.84-24.85-49.25-37.29
	c-3.73-2.83-7.57-5.52-11.37-8.29c-2.33,3.29-1.78,6.81-2.08,10.06c-0.73,7.82,0.31,15.19,5.91,21.48
	c6.87,7.72,13.4,15.76,20.01,23.71C416.89,552.77,429.83,568.4,443.11,584.3z M674.77,439.06c1.06-0.2,2.13-0.37,3.18-0.62
	c5.73-1.38,11.44-2.83,17.18-4.16c8.04-1.87,16.09-3.68,24.14-5.48c6.71-1.5,13.44-2.91,20.12-4.56c6.66-1.64,13.44-2.86,20.17-4.21
	c7.12-1.43,14.27-2.68,21.36-4.24c3.34-0.73,6.82-0.83,10-2.03c1.12-2.75,2.18-5.34,3.48-8.56
	c-63.65,16.56-126.72,32.98-189.63,49.35c-5.14,6.31-7.69,19.94-4.57,23.79c19.77-4.24,39.18-10.03,59.21-13.08
	c-9.35,4.39-19.3,6.82-29.11,9.65c-9.9,2.85-19.95,5.08-30.13,6.13c-0.48,1.83,0.13,2.79,1.54,3.46
	c63.78-15.97,127.6-31.95,192.03-48.08c-3.15-6.85-1.68-13.55-2.74-20.07c-5.95,1.44-11.3,2.64-16.61,4.04
	c-7.98,2.11-16.07,3.81-24.07,5.83c-11.23,2.83-22.63,4.98-33.94,7.53c-9.68,2.18-19.32,4.53-28.98,6.76
	c-10.53,2.42-21.06,4.84-31.61,7.16c-8.35,1.84-16.72,3.57-25.1,5.28c-1.23,0.25-2.6,0.44-4.28-0.67c6.42-2.67,12.68-3.9,18.8-5.55
	C654.89,444.11,664.6,441.69,674.77,439.06z M566.11,632.17c5.62-0.95,11.23-1.96,16.86-2.84c12.04-1.9,23.92-4.59,35.86-6.96
	c2.52-0.5,5.22-1.48,8.19-0.54c-1.21,1.16-2.34,1.61-3.61,1.91c-3.93,0.91-7.82,1.94-11.76,2.83c-9.11,2.04-18.19,4.24-27.36,5.97
	c-10.04,1.89-20.18,3.25-30.25,5c-10.84,1.88-21.65,3.91-32.46,5.92c-2.18,0.41-4.32,1.06-6.47,1.59c1.5,6.06,4.68,7.83,10.39,6.29
	c6.45-1.74,12.94-3.34,19.45-4.87c9.46-2.23,18.95-4.33,28.41-6.53c7.46-1.74,14.9-3.56,22.36-5.33c11.85-2.8,23.71-5.58,35.56-8.37
	c7.45-1.75,14.9-3.53,22.35-5.29c11.75-2.77,23.5-5.57,35.26-8.31c7.83-1.83,15.69-3.57,23.52-5.39c3.9-0.91,7.78-1.9,11.49-2.81
	c0.62-1.18,0.41-1.94-0.68-2.8c-9.49,2.98-19.55,4.2-29.48,6c-9.87,1.79-19.73,4.28-30.13,3.66c0.38-1.32,0.94-1.45,1.53-1.62
	c7.77-2.23,15.8-3.15,23.7-4.7c9.54-1.88,19.12-3.49,28.68-5.26c1.83-0.34,3.85-0.47,5.37-1.37c2.14-1.26,0.3-3.66,0.81-5.52
	c0.69-2.51,1.05-5.11,1.65-8.15c-36.94,5.83-73.98,9.36-109.2,23.28c1.96,0.86,3.72,0.62,5.4,0.33c8.53-1.44,17.02-3.05,25.55-4.46
	c14.64-2.43,29.29-4.82,43.88-7.49c2.99-0.55,6.16-1.18,9.28-0.41c-1.9,1.25-3.95,1.89-6.07,2.3c-9.46,1.8-18.92,3.6-28.39,5.36
	c-7.54,1.4-15.08,2.82-22.64,4.1c-11.44,1.94-22.87,3.95-34.36,5.55c-4.49,0.63-8.89,1.66-13.36,2.35
	c-6.3,0.96-12.69,1.48-18.86,3.27c-3.86,1.12-7.77,2.06-11.66,3.08c-0.03-0.27-0.05-0.54-0.08-0.82
	c-14.39-0.33-28.46,4.48-42.94,3.32c11.25-3.72,23.16-4.27,34.7-7.45c-2.3-2.17-3.65-5.12-7.63-4.64c-2.84,0.34-5.6,1.11-8.45,1.32
	c-3.87,0.28-7.6,0.83-10.74,3.5c-1.33,1.13-3.1,1.53-4.84,2.01c-2.83,0.78-5.45-0.58-8.06-0.36c-5.55,5.18-7.32,15.49-3.79,22.04
	c3,0,5.9-0.94,8.87-1.49c10.53-1.94,21.07-3.83,31.62-5.63C557.57,633.07,561.58,632.69,566.11,632.17z M693.57,557.29
	c-0.87,0.16-1.75,0.26-2.61,0.49c-7.5,2.01-15.07,3.69-22.54,5.86c-7.83,2.28-15.8,4.09-23.75,5.92c-6.8,1.57-13.64,2.94-20.5,4.25
	c-1.27,0.24-2.84,1.01-4.19-1.16c44.51-12.79,89.95-21.95,134.45-34.12c0.4-1.85,1.14-3.21,0.34-5.34
	c-14.33-0.68-27.71,5.25-41.67,7.56c-0.13-1.03,0.1-1.56,0.55-1.72c13.53-4.81,27.24-8.88,41.81-10.45
	c1.41-2.66,2.04-5.67,3.26-9.22c-25.9,5.38-50.91,11.11-74.25,22.52c5.12-0.13,9.93-2.95,15.37-2.15c-0.54,1.19-1.29,1.39-2.07,1.6
	c-3.22,0.89-6.46,1.72-9.65,2.74c-14.23,4.56-28.85,7.74-43.21,11.84c-10.37,2.96-20.93,5.41-31.36,8.25
	c-13.47,3.67-27.05,6.92-40.63,10.15c-1.04,0.25-2.22,0.55-3.7-0.9c21.47-6.92,42.9-12.16,64.09-18.54
	c-3.07-1.62-5.55-4.43-9.16-3.72c-6.36,1.25-12.67,2.74-18.98,4.19c-9.77,2.25-19.54,4.48-29.27,6.86c-3.2,0.78-6.78,1.3-8.15,5.06
	c-0.87,2.4-1.56,4.81-1.68,7.45c-0.21,4.6,0.83,9.02,1.41,13.5c0.59,4.58,3.99,7.37,7.54,6.49c4.96-1.22,9.86-2.65,14.79-4
	c7.96-2.17,15.91-4.35,23.87-6.52c11.56-3.14,23.12-6.27,34.68-9.41c9.48-2.57,18.95-5.16,28.43-7.74c11.75-3.2,23.5-6.4,35.26-9.59
	c8.06-2.18,16.12-4.33,24.18-6.51c6.05-1.64,12.1-3.31,17.81-4.88c0.81-1.22,0.86-2.03-0.02-3.14c-3.75,0.9-7.63,1.83-11.53,2.75
	c-8.12,1.93-16.25,3.84-24.37,5.77C710.1,553.36,702.08,555.27,693.57,557.29z M585.17,688.23c-1.78,2.89-2.45,5.92-1.41,8.99
	c1.03,0.86,1.87,0.71,2.75,0.4c19.32-6.73,38.43-14.04,57.16-22.29c19.1-8.42,38.59-15.79,58.47-22.12c1.75-0.56,3.65-1.88,5.91-0.5
	c-20.52,8.58-41.26,16.57-61.85,24.93c-20.74,8.42-41.73,16.19-62.6,24.46c-0.68,6.08,1.3,11.05,3.79,16.11
	c2.89-0.52,5.04-1.98,7.37-2.94c21.18-8.72,42.38-17.39,63.54-26.17c19.44-8.06,38.81-16.26,58.24-24.36
	c10.53-4.39,21.09-8.71,31.67-12.99c2.11-0.85,3.24-2.14,2.98-4.48c-0.59-5.42-2.05-10.72-1.73-16.41
	c-24.21,6.68-46.65,17.06-70.06,24.75c0.52-1.73,1.92-2.08,3.1-2.6c3.33-1.45,6.76-2.68,10.1-4.12
	c15.99-6.93,32.44-12.64,48.8-18.57c7.65-2.77,10.17-4.04,15.33-9.94c-10.25,4.12-20.16,7.86-29.97,11.9
	c-14.82,6.11-29.83,11.72-44.75,17.59c-15.28,6.01-30.53,12.09-45.81,18.09c-9.52,3.74-19.08,7.36-28.61,11.08
	c-4.36,1.7-8.88,3.03-12.04,7.01c-1.69,2.13-4.52,2.18-7.14,2.02C587.44,688.03,586.48,687.58,585.17,688.23z M677.84,506.48
	c-9.51,3.44-19.01,6.92-28.56,10.28c-2.13,0.75-3.03,2.2-3.07,4.19c-0.09,3.76,1.06,7.17,3.43,10.12c1.19,1.48,2.66,1.9,4.48,1.25
	c7.29-2.65,14.59-5.27,21.89-7.9c13.2-4.77,26.39-9.57,39.6-14.3c9.34-3.34,18.74-6.53,28.09-9.87c17.95-6.4,35.9-12.78,53.79-19.34
	c3.55-1.3,7.74-1.57,10.41-4.58c4.44-5.02,8.34-10.48,11.42-16.47c0.64-1.24,1.05-2.52-0.03-3.98c-3.4,1.19-6.77,2.26-10.04,3.54
	c-16.75,6.57-33.95,11.89-50.75,18.36c-11.81,4.54-23.92,8.33-35.85,12.56C707.83,495.59,693.06,500.97,677.84,506.48z
	 M744.95,604.11c4.76,2.94,8.91,2.56,11.37-1.38c-7.15-3.75-14.15-7.74-21.57-10.85c-1.51,1.71-1.77,3.34-1.05,5.54
	C737.17,599.49,740.87,601.7,744.95,604.11z M481.23,374.04c-17.36-10.51-34.59-20.82-51.71-31.3c-6.38-3.9-12.54-8.16-18.76-12.32
	c-1.31-0.88-2.89-1.66-3.17-3.81c1.94-0.15,3.31,0.91,4.74,1.6c13.29,6.44,25.91,14.11,38.65,21.54
	c21.24,12.39,42.39,24.96,63.53,37.53c20.55,12.21,41.07,24.46,61.52,36.82c5.22,3.15,10.18,6.72,15.2,10.19
	c1.24,0.85,2.76,1.63,2.82,3.64c-2.5,0.81-4.4-0.82-6.34-1.69c-9.8-4.41-18.97-10.02-28.21-15.48
	c-15.93-9.42-31.8-18.93-47.69-28.41C501.66,386.29,491.53,380.23,481.23,374.04z M699.72,449.82c-8.78,1.93-17.32,3.77-25.86,5.65
	c-7,1.54-13.98,3.21-20.99,4.7c-6.91,1.46-13.85,2.81-20.79,4.14c-5.89,1.12-11.81,2.12-17.7,3.24c-2.04,0.39-4.01,0.39-6.7,0.04
	c2.89-2.61,6.01-2.83,8.8-3.61c6.9-1.93,13.94-3.32,20.89-5.06c8.18-2.05,16.53-3.43,24.79-5.17c7.97-1.68,15.92-3.48,23.88-5.19
	c8.54-1.84,17.13-3.44,25.61-5.53c6.97-1.72,13.98-3.18,21-4.63c8.37-1.73,16.71-3.61,25.22-4.56c0.33-0.04,0.69,0.19,1.12,0.76
	C739.55,440.63,719.82,445.44,699.72,449.82z M605.92,703.82c44.8-20.05,89.97-38.71,136.86-55.01c-0.56,2.54-1.92,2.83-2.97,3.25
	c-10.77,4.3-21.57,8.52-32.35,12.78c-13.89,5.5-27.85,10.83-41.64,16.56c-15.07,6.27-30.24,12.26-45.44,18.21
	c-4.11,1.61-8.18,3.34-12.32,4.89C607.4,704.76,605.97,706.13,605.92,703.82z M796.49,466.35c5.4-1.68,10.41-3.93,16.15-4.73
	c-0.58,1.82-2,2.07-3.04,2.49c-10.24,4.05-20.49,8.09-30.8,11.95c-15.83,5.91-31.79,11.49-47.57,17.54
	c-15.32,5.88-30.77,11.4-46.13,17.17c-8.01,3.01-16.09,5.75-24.31,8.12c-1.24,0.36-2.43,0.85-3.81,0.12
	c-0.05-1.62,1.25-2.01,2.36-2.54c9.15-4.36,18.71-7.68,28.23-11.1c11.46-4.11,23.08-7.73,34.48-12.01
	c12.5-4.69,25.17-8.96,37.73-13.51C771.96,475.43,784.1,470.89,796.49,466.35z M757.68,492.37c-15.63,6.3-31.48,11.31-47.05,17.1
	c-15.56,5.79-31.29,11.07-46.98,16.48c-3.25,1.12-6.51,2.25-9.78,3.31c-0.51,0.16-1.12,0.03-1.72,0.03
	c0.03-1.26,0.79-1.65,1.63-1.96c13.82-5.14,27.64-10.31,41.48-15.41c14.1-5.21,28.21-10.41,42.34-15.54
	c17.55-6.38,35.14-12.63,52.67-19.08c4.53-1.67,9.09-3.18,13.67-4.67c1.06-0.34,2.05-0.62,3.13-0.13c-0.15,1.39-1.35,1.43-2.17,1.8
	c-14.05,6.39-28.61,11.46-43.1,16.71C760.52,491.47,759.21,491.86,757.68,492.37z"/>
</svg>
