<?xml version="1.0" encoding="utf-8"?>
<!-- Generator: Adobe Adobe Illustrator 24.2.0, SVG Export Plug-In . SVG Version: 6.00 Build 0)  -->
<svg version="1.1" id="Layer_1" xmlns="http://www.w3.org/2000/svg" xmlns:xlink="http://www.w3.org/1999/xlink" x="0px" y="0px"
	 viewBox="0 0 1196.69 1296" style="enable-background:new 0 0 1196.69 1296;" xml:space="preserve">
<style type="text/css">
	.st0{fill:#e2e8f0;}
	.st1{font-size:162.8882px;}
	.st3{fill:url(#SVGID_1_);}
	.st4{fill:none;}
	.st5{fill:url(#SVGID_2_);}
	.st6{fill:url(#SVGID_3_);}
	.st7{fill:url(#SVGID_4_);}
	.st8{fill:url(#SVGID_5_);}
</style>
<text transform="matrix(1 0 0 1 118.1184 1164.6553)" class="st0 st1 st2">Contributor </text>
<g>
	<linearGradient id="SVGID_1_" gradientUnits="userSpaceOnUse" x1="1123.926" y1="1359.1208" x2="62.6317" y2="177.7412">
		<stop  offset="0" style="stop-color:#05D0F5"/>
		<stop  offset="0.1833" style="stop-color:#3AA6F2"/>
		<stop  offset="0.4808" style="stop-color:#8C67ED"/>
		<stop  offset="0.7257" style="stop-color:#C739EA"/>
		<stop  offset="0.9051" style="stop-color:#EC1CE8"/>
		<stop  offset="1" style="stop-color:#FA11E7"/>
	</linearGradient>
	<path class="st3" d="M576.37,0C659.1,0.78,740.54-1.73,821.5,3.44c59.9,3.82,102.61,41.03,132.13,92.78
		c61.24,107.39,122.25,214.91,183.74,322.15c44.08,76.89,31.25,148.55-13.43,221.15c-55.13,89.57-106.09,181.71-158.79,272.77
		c-2.4,4.14-4.21,8.63-8.65,17.85c22.39,0,41.28-0.03,60.18,0c119.47,0.19,199.78,99.35,175.76,217.01
		c-20.02,98.06-82.4,148.85-182.89,148.85c-277.68-0.01-555.37,0.01-833.05-0.09c-92.32-0.03-165.61-64.47-174.94-153.4
		C-9.8,1034.3,41.75,952.05,137.3,932.65c29.71-6.03,61.67-0.94,97.88-0.94c-40.89-72.09-78.7-138.8-116.57-205.48
		c-20.34-35.82-40.9-71.51-61.14-107.38c-36.98-65.51-37.62-130.98,0.37-196.44c63.53-109.49,126.96-219.04,190.4-328.57
		c36.99-63.87,93.14-93.69,165.99-93.78C467.78-0.02,521.33,0.01,576.37,0z M1069.62,657.86c12.44-21.47,24.99-42.88,37.31-64.42
		c27.44-47.98,30.98-97.27,3.59-145.97c-64.97-115.5-130.25-230.84-197.1-345.26C891,63.84,854.78,38.84,809.99,38.13
		c-134.74-2.12-269.54-1.46-404.31-1.02c-59.06,0.19-100.77,30.17-129.77,80.42C214.15,224.58,152.22,331.52,89.99,438.29
		c-31.17,53.47-33.1,106.56-1.91,160.8c50.23,87.36,99.89,175.04,149.68,262.66c18.16,31.97,36,64.12,56.25,100.21
		c-45.46,0-85.96-0.63-126.44,0.18c-39.71,0.79-73.44,16.57-98.82,47.14c-43.47,52.37-46.47,112.3-21.73,172.01
		c24.85,59.99,76.61,82.66,139.14,82.68c225.08,0.06,450.17,0.22,675.25-0.38c63.85-0.17,129.39,5.85,191.12-6.38
		c84.35-16.71,120.02-87.91,105.77-183.11c-9.86-65.86-71.41-112.32-148.82-112.33c-36.85-0.01-73.71,0-115.24,0
		C954.27,857.87,1011.48,758.86,1069.62,657.86z"/>
</g>
<rect x="798.69" y="549.42" class="st4" width="0" height="0"/>
<g>
	<g>
		<linearGradient id="SVGID_2_" gradientUnits="userSpaceOnUse" x1="239.7342" y1="255.9292" x2="971.7023" y2="757.0067">
			<stop  offset="0" style="stop-color:#05D0F5"/>
			<stop  offset="1" style="stop-color:#FA11EC"/>
		</linearGradient>
		<path class="st5" d="M598.34,130.37c-209.87,0-380,166.12-380,371.05s170.13,371.05,380,371.05s380-166.12,380-371.05
			S808.21,130.37,598.34,130.37z M598.34,826.09c-183.34,0-332.5-145.64-332.5-324.67c0-179.02,149.16-324.67,332.5-324.67
			s332.5,145.65,332.5,324.67C930.84,680.44,781.68,826.09,598.34,826.09z"/>
		<linearGradient id="SVGID_3_" gradientUnits="userSpaceOnUse" x1="221.6457" y1="292.8036" x2="925.0608" y2="828.5239">
			<stop  offset="0" style="stop-color:#05D0F5"/>
			<stop  offset="1" style="stop-color:#FA11EC"/>
		</linearGradient>
		<polygon class="st6" points="366.59,522.49 534.7,593.85 534.7,547.65 417.43,502.25 534.7,458.47 534.7,411.93 366.59,482.97 		
			"/>
		<linearGradient id="SVGID_4_" gradientUnits="userSpaceOnUse" x1="262.86" y1="218.5798" x2="945.8732" y2="794.5751">
			<stop  offset="0" style="stop-color:#05D0F5"/>
			<stop  offset="1" style="stop-color:#FA11EC"/>
		</linearGradient>
		<polygon class="st7" points="550.24,625.22 584.87,625.22 646.26,377.62 610.96,377.62 		"/>
		<linearGradient id="SVGID_5_" gradientUnits="userSpaceOnUse" x1="320.175" y1="160.6041" x2="989.3902" y2="754.8111">
			<stop  offset="0" style="stop-color:#05D0F5"/>
			<stop  offset="1" style="stop-color:#FA11EC"/>
		</linearGradient>
		<polygon class="st8" points="661.82,458.15 779.25,502.72 661.82,547.81 661.82,594.03 830.09,522.49 830.09,483.29 
			661.82,412.25 		"/>
	</g>
</g>
</svg>
