<?xml version="1.0" encoding="utf-8"?>
<!-- Generator: Adobe Adobe Illustrator 24.2.0, SVG Export Plug-In . SVG Version: 6.00 Build 0)  -->
<svg version="1.1" id="Layer_1" xmlns="http://www.w3.org/2000/svg" xmlns:xlink="http://www.w3.org/1999/xlink" x="0px" y="0px"
	 viewBox="0 0 1197.19 1296" style="enable-background:new 0 0 1197.19 1296;" xml:space="preserve">
<style type="text/css">
	.st0{fill:#e2e8f0;}
	.st1{font-size:162.8882px;}
	.st3{fill:url(#SVGID_1_);}
	.st4{fill:url(#SVGID_2_);}
	.st5{fill:url(#SVGID_3_);}
</style>
<text transform="matrix(1 0 0 1 146.6641 1162.6553)" class="st0 st1 st2">Goal Setter</text>
<g>
	<linearGradient id="SVGID_1_" gradientUnits="userSpaceOnUse" x1="1122.926" y1="1357.3708" x2="61.6317" y2="175.9912">
		<stop  offset="0" style="stop-color:#05D0F5"/>
		<stop  offset="0.1833" style="stop-color:#3AA6F2"/>
		<stop  offset="0.4808" style="stop-color:#8C67ED"/>
		<stop  offset="0.7257" style="stop-color:#C739EA"/>
		<stop  offset="0.9051" style="stop-color:#EC1CE8"/>
		<stop  offset="1" style="stop-color:#FA11E7"/>
	</linearGradient>
	<path class="st3" d="M575.37-1.75C658.1-0.97,739.54-3.48,820.5,1.69c59.9,3.82,102.61,41.03,132.13,92.78
		c61.24,107.39,122.25,214.91,183.74,322.15c44.08,76.89,31.25,148.55-13.43,221.15c-55.13,89.57-106.09,181.71-158.79,272.77
		c-2.4,4.14-4.21,8.63-8.65,17.85c22.39,0,41.28-0.03,60.18,0c119.47,0.19,199.78,99.35,175.76,217.01
		c-20.02,98.06-82.4,148.85-182.89,148.85c-277.68-0.01-555.37,0.01-833.05-0.09c-92.32-0.03-165.61-64.47-174.94-153.4
		C-10.8,1032.55,40.75,950.3,136.3,930.9c29.71-6.03,61.67-0.94,97.88-0.94c-40.89-72.09-78.7-138.8-116.57-205.48
		c-20.34-35.82-40.9-71.51-61.14-107.38c-36.98-65.51-37.62-130.98,0.37-196.44c63.53-109.49,126.96-219.04,190.4-328.57
		C284.23,28.2,340.38-1.61,413.23-1.7C466.78-1.77,520.33-1.74,575.37-1.75z M1068.62,656.11c12.44-21.47,24.99-42.88,37.31-64.42
		c27.44-47.98,30.98-97.27,3.59-145.97c-64.97-115.5-130.25-230.84-197.1-345.26C890,62.09,853.78,37.09,808.99,36.38
		c-134.74-2.12-269.54-1.46-404.31-1.02c-59.06,0.19-100.77,30.17-129.77,80.42C213.15,222.83,151.22,329.77,88.99,436.54
		c-31.17,53.47-33.1,106.56-1.91,160.8C137.31,684.7,186.97,772.39,236.76,860c18.16,31.97,36,64.12,56.25,100.21
		c-45.46,0-85.96-0.63-126.44,0.18c-39.71,0.79-73.44,16.57-98.82,47.14c-43.47,52.37-46.47,112.3-21.73,172.01
		c24.85,59.99,76.61,82.66,139.14,82.68c225.08,0.06,450.17,0.22,675.25-0.38c63.85-0.17,129.39,5.85,191.12-6.38
		c84.35-16.71,120.02-87.91,105.77-183.11c-9.86-65.86-71.41-112.32-148.82-112.33c-36.85-0.01-73.71,0-115.24,0
		C953.27,856.12,1010.48,757.11,1068.62,656.11z"/>
</g>
<g>
	<g>
		<linearGradient id="SVGID_2_" gradientUnits="userSpaceOnUse" x1="316.5603" y1="230.0973" x2="889.9328" y2="803.4698">
			<stop  offset="0" style="stop-color:#05D0F5"/>
			<stop  offset="1" style="stop-color:#F411EC"/>
		</linearGradient>
		<path class="st4" d="M484.27,859.73c-14.08-4.51-27.54-9.63-40.55-15.77c-17.42-8.22-34.26-17.57-50.22-28.44
			c-16.39-11.16-31.85-23.46-46.34-37c-25.32-23.65-46.87-50.4-64.47-80.16c-14.87-25.13-26.88-51.63-35.16-79.81
			c-4.98-16.96-9.35-34.05-11.97-51.47c-1.68-11.16-3.41-22.43-3.41-33.83c-0.01-7.96-1.19-15.88-0.94-23.87
			c0.5-16.22,1.65-32.37,3.68-48.49c2.67-21.27,7.69-41.99,14.09-62.34c7.8-24.78,18.32-48.44,31.58-70.82
			c4.28-7.22,14.01-9.63,21.28-5.35c5.43,3.2,9.75,12.42,5.48,20.04c-7.6,13.56-14.63,27.42-20.5,41.84
			c-5.68,13.97-10.26,28.3-14.09,42.9c-2.38,9.09-4.45,18.24-6.05,27.45c-1.63,9.39-2.57,18.92-3.53,28.41
			c-0.4,3.99-0.07,8.04-0.07,12.58c1.16,1.07,3.22,0.42,5.07,0.42c27.48,0.05,54.96,0.02,82.43,0.06c8.97,0.01,14.52,4,16.38,11.54
			c2.31,9.39-4.51,18.35-14.14,18.37c-27.97,0.06-55.93,0.01-83.9,0.06c-2.05,0.01-4.24-0.58-6.75,1.31
			c1.87,6.12,0.42,12.76,1.59,19.39c1.85,10.51,2.78,21.17,4.96,31.66c2.34,11.26,5.34,22.33,8.62,33.32
			c5.38,18.03,12.65,35.33,21.3,52.01c12.88,24.83,28.42,47.83,46.91,68.94c17.09,19.52,36.14,36.78,57.14,51.8
			c24.33,17.41,50.54,31.39,78.71,41.79c17.67,6.53,35.77,11.28,54.1,15.12c13.45,2.82,27.17,4.26,40.9,5.15
			c5.93,0.38,5.98,0.05,5.98-5.79c0.01-27.34,0.01-54.68,0-82.02c0-5.41,1.18-10.16,5.78-13.77c5.14-4.03,10.73-3.77,16.1-1.68
			c5.38,2.09,8.1,6.56,8.08,12.65c-0.08,28.31-0.04,56.63-0.02,84.95c0,5.68,0.05,6.03,5.63,5.64c11.93-0.82,23.84-2.02,35.63-4.24
			c9.68-1.83,19.33-3.77,28.89-6.16c17.63-4.39,34.64-10.61,51.22-17.96c21.99-9.75,42.71-21.75,62.08-36.04
			c20.69-15.28,39.52-32.56,56.25-52.15c17.14-20.06,31.95-41.7,44.03-65.13c9.52-18.46,17.07-37.74,23.18-57.64
			c4.48-14.58,7.49-29.45,10.13-44.38c1.86-10.48,3.03-21.16,3.34-31.88c0.11-3.93-1.27-5-5.05-4.98
			c-27.8,0.13-55.61,0.08-83.41,0.07c-9.82,0-16-5.72-16-14.76c-0.01-9.49,6.06-15.18,16.3-15.19c27.32-0.02,54.63,0,81.95-0.01
			c6.12,0,6.29-0.04,6.1-6.3c-0.32-10.7-1.76-21.3-3.62-31.83c-1.58-8.92-3.06-17.88-5.25-26.65c-2.27-9.08-4.71-18.13-7.79-27
			c-7.3-21.01-16.19-41.28-27.32-60.55c-15.51-26.88-34.37-51.17-56.55-72.84c-23.46-22.93-49.71-42.09-78.78-57.29
			c-18.53-9.69-37.88-17.38-57.84-23.72c-21.39-6.8-43.4-10.15-65.48-13.24c-5.55-0.78-11.27-0.04-16.55-1.06
			c-1.55,2.4-1.05,4.41-1.05,6.31c-0.04,27.66-0.02,55.33-0.02,83c0,9.36-5.99,16.22-14.58,15.91c-7.3-0.26-15.42-5.32-15.37-16.07
			c0.09-21.32,0.02-42.63,0.02-63.96c0-7.48,0-14.97-0.05-22.45c-0.01-0.76-0.35-1.52-0.52-2.21c-10.78-0.34-21.2,1.23-31.6,2.57
			c-11.06,1.43-21.98,3.67-32.82,6.33c-18.25,4.49-35.99,10.5-53.23,17.95c-12.2,5.27-23.97,11.41-35.58,17.88
			c-6.71,3.74-15.35,0.98-19.7-6.13c-3.97-6.47-2.17-15.94,4.1-19.96c11.49-7.36,23.74-13.28,36.2-18.8
			c18.67-8.28,37.93-14.77,57.7-19.91c14.42-3.75,29.02-6.46,43.74-8.4c25.49-3.36,51.14-4.08,76.73-1.89
			c18.84,1.61,37.68,4.15,56.02,8.87c24.6,6.32,48.58,14.5,71.58,25.56c20.94,10.07,40.9,21.72,59.49,35.55
			c20.57,15.29,39.6,32.34,56.56,51.72c14.24,16.27,27.32,33.31,38.6,51.75c13.1,21.44,24.1,43.87,32.56,67.58
			c6.38,17.87,11.65,36.06,15.06,54.66c2.45,13.33,4.49,26.78,5.51,40.39c1.09,14.48,0.66,28.93,0.7,43.39
			c0.04,14.61-1.92,29.04-4.32,43.48c-1.89,11.34-4,22.6-6.72,33.74c-3.38,13.82-8.12,27.21-13.05,40.56
			c-6.77,18.3-15.33,35.7-25.09,52.5c-14.55,25.06-31.96,47.97-52.03,68.93c-19.39,20.25-40.65,38.16-64.06,53.48
			c-22.42,14.67-46.16,26.76-71.28,36.26c-21.4,8.09-43.37,13.95-65.77,18.13c-28.34,5.29-57.07,6.49-85.79,4.96
			c-18.55-0.99-37.03-3.7-55.21-7.72C508.18,866.89,496.24,863.9,484.27,859.73z"/>
		<linearGradient id="SVGID_3_" gradientUnits="userSpaceOnUse" x1="319.5373" y1="233.007" x2="892.8952" y2="806.3649">
			<stop  offset="0" style="stop-color:#05D0F5"/>
			<stop  offset="1" style="stop-color:#FA11EC"/>
		</linearGradient>
		<path class="st5" d="M520.06,524.39c-6.94-3.56-9.04-11.83-7.49-17.3c1.96-6.95,7.65-10.99,15.4-11.02
			c16.41-0.05,32.82-0.11,49.23,0.07c3.99,0.05,5.36-1.12,5.31-5.23c-0.2-16.58-0.11-33.17-0.05-49.76
			c0.02-6.61,2.94-11.72,9.08-14.27c5.59-2.32,11.19-1.78,15.99,2.28c3.24,2.73,4.9,6.22,4.88,10.66
			c-0.11,16.91,0.09,33.83-0.13,50.73c-0.05,4.24,1.12,5.64,5.47,5.59c16.41-0.22,32.82-0.15,49.23-0.05
			c11.34,0.07,17.72,7.87,15.63,18.87c-1.16,6.12-7.05,11-13.59,11.03c-16.9,0.06-33.79,0.02-50.69,0.04
			c-5.94,0.01-5.96,0.03-5.97,5.88c-0.01,16.42-0.36,32.86,0.14,49.27c0.27,8.96-6.28,15.25-15.03,15.64
			c-7.84,0.35-14.9-6.95-14.98-15.4c-0.16-16.1-0.05-32.2-0.06-48.3c-0.01-7.11-0.02-7.11-7.28-7.11c-16.09,0.01-32.17,0.01-48.26,0
			C524.62,526.02,522.29,526.26,520.06,524.39z"/>
	</g>
</g>
</svg>
