<?xml version="1.0" encoding="utf-8"?>
<!-- Generator: Adobe Adobe Illustrator 24.2.0, SVG Export Plug-In . SVG Version: 6.00 Build 0)  -->
<svg version="1.1" id="Layer_1" xmlns="http://www.w3.org/2000/svg" xmlns:xlink="http://www.w3.org/1999/xlink" x="0px" y="0px"
	 viewBox="0 0 1197.19 1296" style="enable-background:new 0 0 1197.19 1296;" xml:space="preserve">
<style type="text/css">
	.st0{fill:#e2e8f0;}
	.st1{font-size:162.8882px;}
	.st3{fill:url(#SVGID_1_);}
	.st4{fill:url(#SVGID_2_);}
</style>
<text transform="matrix(1 0 0 1 120.7132 1168.6553)" class="st0 st1 st2">Goal Scorer</text>
<g>
	<linearGradient id="SVGID_1_" gradientUnits="userSpaceOnUse" x1="1122.926" y1="1357.3708" x2="61.6317" y2="175.9912">
		<stop  offset="0" style="stop-color:#05D0F5"/>
		<stop  offset="0.1833" style="stop-color:#3AA6F2"/>
		<stop  offset="0.4808" style="stop-color:#8C67ED"/>
		<stop  offset="0.7257" style="stop-color:#C739EA"/>
		<stop  offset="0.9051" style="stop-color:#EC1CE8"/>
		<stop  offset="1" style="stop-color:#FA11E7"/>
	</linearGradient>
	<path class="st3" d="M575.37-1.75C658.1-0.97,739.54-3.48,820.5,1.69c59.9,3.82,102.61,41.03,132.13,92.78
		c61.24,107.39,122.25,214.91,183.74,322.15c44.08,76.89,31.25,148.55-13.43,221.15c-55.13,89.57-106.09,181.71-158.79,272.77
		c-2.4,4.14-4.21,8.63-8.65,17.85c22.39,0,41.28-0.03,60.18,0c119.47,0.19,199.78,99.35,175.76,217.01
		c-20.02,98.06-82.4,148.85-182.89,148.85c-277.68-0.01-555.37,0.01-833.05-0.09c-92.32-0.03-165.61-64.47-174.94-153.4
		C-10.8,1032.55,40.75,950.3,136.3,930.9c29.71-6.03,61.67-0.94,97.88-0.94c-40.89-72.09-78.7-138.8-116.57-205.48
		c-20.34-35.82-40.9-71.51-61.14-107.38c-36.98-65.51-37.62-130.98,0.37-196.44c63.53-109.49,126.96-219.04,190.4-328.57
		C284.23,28.2,340.38-1.61,413.23-1.7C466.78-1.77,520.33-1.74,575.37-1.75z M1068.62,656.11c12.44-21.47,24.99-42.88,37.31-64.42
		c27.44-47.98,30.98-97.27,3.59-145.97c-64.97-115.5-130.25-230.84-197.1-345.26C890,62.09,853.78,37.09,808.99,36.38
		c-134.74-2.12-269.54-1.46-404.31-1.02c-59.06,0.19-100.77,30.17-129.77,80.42C213.15,222.83,151.22,329.77,88.99,436.54
		c-31.17,53.47-33.1,106.56-1.91,160.8C137.31,684.7,186.97,772.39,236.76,860c18.16,31.97,36,64.12,56.25,100.21
		c-45.46,0-85.96-0.63-126.44,0.18c-39.71,0.79-73.44,16.57-98.82,47.14c-43.47,52.37-46.47,112.3-21.73,172.01
		c24.85,59.99,76.61,82.66,139.14,82.68c225.08,0.06,450.17,0.22,675.25-0.38c63.85-0.17,129.39,5.85,191.12-6.38
		c84.35-16.71,120.02-87.91,105.77-183.11c-9.86-65.86-71.41-112.32-148.82-112.33c-36.85-0.01-73.71,0-115.24,0
		C953.27,856.12,1010.48,757.11,1068.62,656.11z"/>
</g>
<g>
	<g>
		<g>
			<linearGradient id="SVGID_2_" gradientUnits="userSpaceOnUse" x1="320.9848" y1="234.9488" x2="859.1748" y2="773.1389">
				<stop  offset="0" style="stop-color:#05D0F5"/>
				<stop  offset="1" style="stop-color:#FA11EC"/>
			</linearGradient>
			<path class="st4" d="M597.34,148.65c-199.92,0-362.56,162.64-362.56,362.56c0,54.4,11.72,106.6,34.84,155.12
				c29,61.15,74.44,112.92,131.39,149.69c58.5,37.78,126.39,57.74,196.33,57.74c145.3,0,276.1-86.26,333.23-219.73
				c17.44-40.59,27.15-83.37,28.86-127.13c0.31-5.21,0.47-10.49,0.47-15.7C959.9,311.29,797.26,148.65,597.34,148.65z
				 M597.34,843.55c-64.11,0-126.34-18.3-179.94-52.91c-48.72-31.46-88.24-74.89-114.92-126.1l147.82-107.82
				c10.49,1.02,17.57,6,26.27,12.14c11.28,7.96,25.31,17.87,47.72,17.87c23.22,0,35.34-10.39,45.09-18.74
				c8.06-6.91,13.39-11.47,25.43-11.47s17.37,4.56,25.43,11.47c9.74,8.35,21.87,18.74,45.09,18.74v-30.21
				c-12.04,0-17.37-4.56-25.43-11.47c-9.74-8.35-21.87-18.74-45.09-18.74c-23.22,0-35.34,10.39-45.09,18.74
				c-8.06,6.91-13.38,11.47-25.43,11.47c-12.82,0-20.53-5.45-30.3-12.34c-4.2-2.97-8.78-6.2-14.03-9.09l80.87-58.98l129.88,69.13
				L897,654.93C841.94,769.97,725.82,843.55,597.34,843.55z M908.86,627.01l-184.28-97.98l71.29-60.29l132.84,66.49
				C926.58,566.6,919.93,597.37,908.86,627.01z M800.49,437.27c-5.4-2.71-11.9-1.93-16.52,1.97l-88.11,74.51l-121.18-64.5v-28.69
				h105.75c8.34,0,15.11-6.76,15.11-15.11v-75.53c0-8.34-6.76-15.11-15.11-15.11H559.58c-8.34,0-15.11,6.76-15.11,15.11v120.73
				L289.5,636.62c-16.27-39.64-24.5-81.74-24.5-125.41c0-183.26,149.09-332.35,332.35-332.35c180.13,0,327.24,144.05,332.21,323.01
				L800.49,437.27z M574.68,390.35v-45.32h90.64v45.32H574.68z"/>
		</g>
	</g>
</g>
</svg>
