<?xml version="1.0" encoding="utf-8"?>
<!-- Generator: Adobe Adobe Illustrator 24.2.0, SVG Export Plug-In . SVG Version: 6.00 Build 0)  -->
<svg version="1.1" id="Layer_1" xmlns="http://www.w3.org/2000/svg" xmlns:xlink="http://www.w3.org/1999/xlink" x="0px" y="0px"
	 viewBox="0 0 1197.19 1296" style="enable-background:new 0 0 1197.19 1296;" xml:space="preserve">
<style type="text/css">
	.st0{fill:#e2e8f0;}
	.st1{font-size:119.8042px;}
	.st3{fill:url(#SVGID_1_);}
	.st4{fill:url(#SVGID_2_);}
</style>
<text transform="matrix(1 0 0 1 98.8905 1148.3184)" class="st0 st1 st2">Sharing is caring</text>
<g>
	<linearGradient id="SVGID_1_" gradientUnits="userSpaceOnUse" x1="1098.5734" y1="1330.2626" x2="66.5241" y2="181.4372">
		<stop  offset="0" style="stop-color:#05D0F5"/>
		<stop  offset="0.1833" style="stop-color:#3AA6F2"/>
		<stop  offset="0.4808" style="stop-color:#8C67ED"/>
		<stop  offset="0.7257" style="stop-color:#C739EA"/>
		<stop  offset="0.9051" style="stop-color:#EC1CE8"/>
		<stop  offset="1" style="stop-color:#FA11E7"/>
	</linearGradient>
	<path class="st3" d="M575.37-1.75C658.1-0.97,739.54-3.48,820.5,1.69c59.9,3.82,102.61,41.03,132.13,92.78
		c61.24,107.39,122.25,214.91,183.74,322.15c44.08,76.89,31.25,148.55-13.43,221.15c-55.13,89.57-106.09,181.71-158.79,272.77
		c-2.4,4.14-4.21,8.63-8.65,17.85c22.39,0,41.28-0.03,60.18,0c119.47,0.19,199.78,99.35,175.76,217.01
		c-20.02,98.06-82.4,148.85-182.89,148.85c-277.68-0.01-555.37,0.01-833.05-0.09c-92.32-0.03-165.61-64.47-174.94-153.4
		C-10.8,1032.55,40.75,950.3,136.3,930.9c29.71-6.03,61.67-0.94,97.88-0.94c-40.89-72.09-78.7-138.8-116.57-205.48
		c-20.34-35.82-40.9-71.51-61.14-107.38c-36.98-65.51-37.62-130.98,0.37-196.44c63.53-109.49,126.96-219.04,190.4-328.57
		C284.23,28.2,340.38-1.61,413.23-1.7C466.78-1.77,520.33-1.74,575.37-1.75z M1068.62,656.11c12.44-21.47,24.99-42.88,37.31-64.42
		c27.44-47.98,30.98-97.27,3.59-145.97c-64.97-115.5-130.25-230.84-197.1-345.26C890,62.09,853.78,37.09,808.99,36.38
		c-134.74-2.12-269.54-1.46-404.31-1.02c-59.06,0.19-100.77,30.17-129.77,80.42C213.15,222.83,151.22,329.77,88.99,436.54
		c-31.17,53.47-33.1,106.56-1.91,160.8C137.31,684.7,186.97,772.39,236.76,860c18.16,31.97,36,64.12,56.25,100.21
		c-45.46,0-85.96-0.63-126.44,0.18c-39.71,0.79-73.44,16.57-98.82,47.14c-43.47,52.37-46.47,112.3-21.73,172.01
		c24.85,59.99,76.61,82.66,139.14,82.68c225.08,0.06,450.17,0.22,675.25-0.38c63.85-0.17,129.39,5.85,191.12-6.38
		c84.35-16.71,120.02-87.91,105.77-183.11c-9.86-65.86-71.41-112.32-148.82-112.33c-36.85-0.01-73.71,0-115.24,0
		C953.27,856.12,1010.48,757.11,1068.62,656.11z"/>
</g>
<g>
	<linearGradient id="SVGID_2_" gradientUnits="userSpaceOnUse" x1="352.1924" y1="200.529" x2="893.7934" y2="793.3039">
		<stop  offset="0" style="stop-color:#05D0F5"/>
		<stop  offset="1" style="stop-color:#FA11EC"/>
	</linearGradient>
	<path class="st4" d="M598.59,301.86c13.87,0,25.12-11.25,25.12-25.12c0-13.87-11.25-25.12-25.12-25.12V301.86z M858.18,511.21
		c0-13.87-11.25-25.12-25.12-25.12c-13.87,0-25.12,11.25-25.12,25.12H858.18z M833.06,301.86c13.87,0,25.12-11.25,25.12-25.12
		c0-13.87-11.25-25.12-25.12-25.12V301.86z M696.13,251.61c-13.87,0-25.12,11.25-25.12,25.12c0,13.87,11.25,25.12,25.12,25.12
		V251.61z M858.18,276.74c0-13.87-11.25-25.12-25.12-25.12c-13.87,0-25.12,11.25-25.12,25.12H858.18z M807.94,415.44
		c0,13.87,11.25,25.12,25.12,25.12c13.87,0,25.12-11.25,25.12-25.12H807.94z M850.82,294.5c9.81-9.81,9.81-25.72,0-35.53
		c-9.81-9.81-25.71-9.81-35.53,0L850.82,294.5z M580.83,493.44c-9.81,9.81-9.81,25.71,0,35.53s25.71,9.81,35.53,0L580.83,493.44z
		 M598.59,251.61H498.11v50.24h100.49V251.61z M498.11,251.61c-87.87,0-159.1,71.23-159.1,159.1h50.24
		c0-60.12,48.74-108.86,108.86-108.86V251.61z M339,410.72v200.97h50.24V410.72H339z M339,611.69c0,87.87,71.23,159.1,159.1,159.1
		v-50.24c-60.12,0-108.86-48.74-108.86-108.86H339z M498.11,770.8h200.97v-50.24H498.11V770.8z M699.08,770.8
		c87.87,0,159.1-71.23,159.1-159.1h-50.24c0,60.12-48.74,108.86-108.86,108.86V770.8z M858.18,611.69V511.21h-50.24v100.49H858.18z
		 M833.06,251.61H696.13v50.24h136.93V251.61z M807.94,276.74v138.71h50.24V276.74H807.94z M815.3,258.97L580.83,493.44l35.53,35.53
		L850.82,294.5L815.3,258.97z"/>
</g>
</svg>
