<?xml version="1.0" encoding="utf-8"?>
<!-- Generator: Adobe Adobe Illustrator 24.2.0, SVG Export Plug-In . SVG Version: 6.00 Build 0)  -->
<svg version="1.1" id="Layer_1_copy" xmlns="http://www.w3.org/2000/svg" xmlns:xlink="http://www.w3.org/1999/xlink" x="0px"
	 y="0px" viewBox="0 0 1303.08 1238" style="enable-background:new 0 0 1303.08 1238;" xml:space="preserve">
<style type="text/css">
	.st0{fill:#FFFFFF;}
	.st1{fill:url(#SVGID_1_);}
	.st2{fill:#00ACBD;}
	.st3{fill:#FEFEFE;}
</style>
<g>
	<linearGradient id="SVGID_1_" gradientUnits="userSpaceOnUse" x1="-143.1126" y1="-120.1454" x2="1570.9652" y2="1173.1278">
		<stop  offset="0" style="stop-color:#FA11E7"/>
		<stop  offset="1" style="stop-color:#05D0F5"/>
	</linearGradient>
	<path class="st1" d="M110.62,918.6c6.71,3.89,13.36,7.88,20.06,11.77c4.47,2.59,9.03,5.03,13.5,7.62
		c6.58,3.82,13.08,7.79,19.67,11.58c5.1,2.93,10.34,5.63,15.44,8.56c6.6,3.8,13.11,7.72,19.66,11.6c5.19,3.07,10.36,6.19,15.59,9.21
		c4.6,2.66,9.27,5.19,13.89,7.8c4.75,2.68,9.51,5.35,14.23,8.08c6.71,3.88,13.38,7.84,20.09,11.72c4.47,2.59,8.99,5.09,13.47,7.67
		c4.85,2.79,9.67,5.63,14.52,8.42c4.86,2.79,9.77,5.5,14.61,8.32c6.58,3.83,13.08,7.79,19.67,11.59c6.59,3.8,13.29,7.41,19.87,11.22
		c8.7,5.03,17.33,10.19,26.02,15.24c4.72,2.74,9.5,5.36,14.24,8.08c4.85,2.78,9.67,5.64,14.52,8.42c4.86,2.79,9.78,5.49,14.61,8.32
		c8.05,4.71,16.03,9.56,24.1,14.24c5.09,2.95,10.34,5.62,15.44,8.56c8.71,5.02,17.32,10.21,26.03,15.23
		c6.59,3.8,13.28,7.42,19.87,11.22c6.97,4.02,13.85,8.19,20.8,12.24c4.46,2.61,8.99,5.11,13.47,7.69c4.85,2.79,9.67,5.63,14.52,8.42
		c4.86,2.79,9.77,5.49,14.61,8.32c8.05,4.72,16.03,9.56,24.11,14.24c5.09,2.95,10.33,5.63,15.44,8.56
		c6.47,3.72,12.85,7.6,19.31,11.33c6.84,3.95,13.84,7.64,20.55,11.8c2.36,1.46,4.79,1.91,7.31,2.31c6.05,0.96,10.87-2.24,15.77-4.97
		c4.88-2.73,9.67-5.62,14.53-8.41c4.86-2.79,9.77-5.5,14.61-8.32c6.45-3.75,12.84-7.62,19.3-11.34c6.72-3.87,13.53-7.58,20.24-11.46
		c8.82-5.12,17.57-10.37,26.38-15.5c4.59-2.67,9.28-5.16,13.88-7.82c6.58-3.82,13.08-7.79,19.68-11.58
		c6.59-3.8,13.28-7.41,19.88-11.21c6.47-3.72,12.86-7.58,19.31-11.34c7.07-4.12,14.18-8.2,21.51-12.53
		c4.15-2.37,8.1-4.44,11.95-6.68c8.07-4.69,16.06-9.53,24.14-14.2c4.97-2.87,10.11-5.43,15.08-8.31
		c8.83-5.1,17.58-10.34,26.38-15.51c4.95-2.91,9.9-5.82,14.86-8.7c4.22-2.45,8.45-4.9,12.7-7.31c6.62-3.75,13.29-7.4,19.88-11.2
		c6.59-3.8,13.07-7.8,19.67-11.59c5.1-2.94,10.35-5.61,15.44-8.55c6.84-3.96,13.57-8.11,20.39-12.1c4.58-2.68,9.26-5.2,13.86-7.84
		c4.73-2.72,9.41-5.52,14.14-8.24c4.98-2.86,10.02-5.62,14.99-8.5c6.58-3.82,13.09-7.78,19.68-11.58c6.59-3.8,13.29-7.4,19.88-11.21
		c9.94-5.76,19.8-11.64,29.71-17.44c9.55-5.59,19.09-11.19,28.67-16.72c9.82-5.67,19.7-11.23,29.52-16.9
		c9.08-5.25,18.08-10.62,27.16-15.86c9.82-5.67,19.68-11.27,29.52-16.89c10.35-5.91,20.66-11.88,31.07-17.68
		c5.02-2.8,8.34-6.72,9.2-12.45c0.32-2.15,0.28-4.37,0.28-6.55c0.01-241.91,0.01-483.81,0.01-725.72c0-1.62,0.13-3.26,0-4.87
		c-0.72-8.7-8.91-14.7-18.2-10.1c-4.62,2.29-8.91,5.23-13.36,7.87c-1.13,0.67-1.91,0.26-2.04-1.12c-0.09-0.88-0.04-1.77-0.04-2.65
		c0-3.25-0.1-6.5,0.03-9.74c0.08-1.9-0.1-3.6-1.97-4.47c-1.73-0.8-3.02,0.12-4.22,1.39c-0.69,0.73-1.63,1.25-2.49,1.81
		c-15.91,10.26-31.83,20.5-47.75,30.76c-6.17,3.98-12.32,8.01-18.49,11.99c-1.37,0.88-1.69,0.69-1.76-0.95
		c-0.05-1.18-0.01-2.36-0.01-3.54c0-26.86,0-53.72,0-80.59c0-1.18,0.11-2.38-0.08-3.53c-0.32-1.97-2.06-2.52-3.59-1.22
		c-4.8,4.1-9.54,8.27-14.39,12.29c-12.13,10.06-24.29,20.07-36.47,30.06c-14.22,11.68-28.47,23.31-42.69,34.98
		c-10.58,8.68-21.12,17.4-31.71,26.08c-13.65,11.2-27.35,22.35-41,33.55c-14.33,11.77-28.62,23.58-42.94,35.35
		c-2.42,1.99-4.92,3.87-7.91,6.22c0-2.35,0-3.95,0-5.56c0-69.81,0-139.62,0-209.44c0-1.33-0.07-2.66,0-3.98
		c0.07-1.23-0.45-2.09-1.61-2.23c-0.92-0.11-2.09-0.08-2.78,0.41c-0.91,0.65-1.49,1.78-2.14,2.76c-11.11,16.94-22.2,33.9-33.3,50.85
		c-16.17,24.7-32.35,49.39-48.52,74.09c-16.26,24.82-32.51,49.64-48.77,74.45c-11.27,17.2-22.53,34.41-33.82,51.6
		c-10.48,15.96-21.04,31.87-31.5,47.84c-18.18,27.77-36.28,55.58-54.45,83.35c-9.25,14.13-18.61,28.19-27.86,42.31
		c-11.59,17.69-23.13,35.41-34.66,53.14c-0.82,1.26-1.26,1.37-2.12,0.04c-5.96-9.24-11.94-18.47-17.97-27.67
		c-16.51-25.18-33.06-50.33-49.57-75.5c-13.85-21.12-27.68-42.26-41.51-63.39c-19.63-29.99-39.23-59.99-58.88-89.96
		c-11.2-17.08-22.5-34.08-33.7-51.15c-10.88-16.58-21.67-33.21-32.52-49.8c-13.26-20.28-26.53-40.55-39.81-60.82
		c-13.04-19.9-26.09-39.79-39.15-59.67c-0.63-0.96-1.32-1.98-2.23-2.64c-1.78-1.31-3.88-0.28-4.04,1.9
		c-0.1,1.32-0.03,2.66-0.03,3.98c0,69.96,0,139.92,0,209.88c0,1.55,0,3.09,0,5.01c-0.9-0.56-1.3-0.75-1.63-1.02
		c-8.41-6.92-16.8-13.86-25.22-20.76c-11.27-9.24-22.57-18.43-33.83-27.67c-11.83-9.71-23.63-19.47-35.46-29.18
		c-12.28-10.08-24.61-20.11-36.89-30.19c-12.51-10.28-25-20.58-37.48-30.9C145.04,72.57,129.55,59.69,114,46.88
		c-0.57-0.47-1.7-0.79-2.3-0.53c-0.64,0.27-1.19,1.26-1.34,2.02c-0.22,1.14-0.06,2.35-0.06,3.53c0,26.86,0,53.72,0,80.59
		c0,1.55,0,3.1,0,5.21c-5.41-3.47-10.22-6.54-15.02-9.63c-8.64-5.55-17.32-11.05-25.91-16.67c-10.19-6.67-20.34-13.41-30.45-20.21
		c-1.12-0.75-2.21-1.01-3.25-0.52c-1.17,0.55-2.15,1.46-2.06,3.07c0.11,2.06,0.04,4.13,0.04,6.2c0,2.51,0.04,5.02-0.04,7.53
		c-0.05,1.45-0.85,1.9-1.96,1.25c-4.45-2.63-8.9-5.27-13.34-7.91c-6.27-3.72-15-0.62-17.5,6.2c-1.04,2.83-0.79,5.77-0.79,8.68
		C0,357.59,0,599.49,0,841.4c0,1.48-0.08,2.96,0,4.43c0.26,5.23,2.23,9.78,6.57,12.71c4.86,3.29,10.09,6.03,15.2,8.97
		c4.48,2.58,9.03,5.03,13.5,7.63c6.58,3.83,13.08,7.79,19.68,11.58c5.1,2.93,10.34,5.62,15.44,8.56
		c8.71,5.02,17.33,10.19,26.02,15.24C101.11,913.26,105.9,915.86,110.62,918.6z M678.21,1186.07c0.26,0.03,0.53,0.05,0.57,0.29
		C678.44,1186.41,678.32,1186.24,678.21,1186.07z M1267.85,829.66c1.62,0.06,2.59-1.27,2.72-2.93c0.08-1.03,0.01-2.06,0.01-3.1
		c-0.01-15.2-0.01-30.4-0.04-45.6c-0.29-176.91-0.57-353.83-0.91-530.74c-0.07-35.83-0.37-71.67-0.56-107.5
		c-0.02-4.43-0.02-4.47,3.51-6.66c2.07-1.28,4.18-2.5,6.35-3.62c1.51-0.78,2.18-0.35,2.26,1.22c0.05,1.03,0.01,2.07,0.01,3.1
		c0,234.35,0,468.7,0,703.05c0,0.89-0.07,1.78,0.01,2.66c0.19,2.05-0.89,3.31-2.53,4.25c-6.72,3.83-13.46,7.61-20.16,11.49
		c-6.44,3.73-12.8,7.6-19.25,11.31c-6.7,3.86-13.49,7.56-20.18,11.43c-6.57,3.79-13.05,7.76-19.62,11.56
		c-6.69,3.87-13.49,7.56-20.18,11.43c-6.57,3.79-13.04,7.76-19.62,11.56c-6.69,3.87-13.49,7.56-20.18,11.43
		c-6.57,3.8-13.06,7.74-19.61,11.56c-4.83,2.81-9.73,5.5-14.58,8.28c-4.84,2.78-9.63,5.63-14.47,8.4
		c-4.47,2.56-9.01,5.01-13.46,7.61c-6.93,4.04-13.78,8.23-20.73,12.25c-6.57,3.79-13.25,7.38-19.82,11.17
		c-8.68,5.01-17.28,10.16-25.95,15.2c-4.83,2.81-9.75,5.47-14.59,8.26c-8.31,4.79-16.58,9.64-24.88,14.44
		c-4.96,2.87-9.95,5.7-14.91,8.57c-4.83,2.79-9.63,5.63-14.47,8.41c-4.47,2.56-9.01,5.01-13.46,7.61
		c-6.93,4.04-13.78,8.23-20.73,12.25c-6.57,3.79-13.25,7.38-19.82,11.17c-8.68,5.01-17.28,10.16-25.95,15.2
		c-4.83,2.81-9.75,5.47-14.59,8.26c-8.31,4.79-16.58,9.64-24.88,14.44c-4.96,2.87-9.95,5.7-14.91,8.57
		c-4.83,2.79-9.64,5.61-14.47,8.41c-4.21,2.44-8.42,4.9-12.67,7.28c-4.99,2.79-10.02,5.51-15.35,8.33
		c-0.14-0.06-0.24-0.12-0.33-0.19c-0.45,0.81-0.81,1.51-1.38,1.84c-5.67,3.32-11.37,6.58-17.06,9.85c-0.37,0.21-0.76,0.48-1.16,0.53
		c-0.48,0.06-0.98-0.09-1.47-0.14c0.28-0.43,0.46-1.02,0.86-1.27c4.81-3.02,9.66-5.99,14.5-8.98c1.74-1.07,3.46-2.16,5.49-3.27
		c0.06,0.07,0.09,0.14,0.13,0.22c8.65-5.54,17.07-10.85,25.55-16.07c16.97-10.44,33.98-20.83,50.96-31.25
		c18.24-11.2,36.47-22.4,54.69-33.63c14.72-9.08,29.41-18.21,44.13-27.29c15.34-9.46,30.7-18.9,46.06-28.34
		c19.23-11.82,38.45-23.66,57.69-35.46c19.86-12.19,39.77-24.3,59.61-36.53c16.98-10.46,33.87-21.06,50.85-31.52
		c22.21-13.69,44.47-27.28,66.69-40.94c13.74-8.44,27.44-16.95,41.2-25.37C1263.91,830.78,1265.56,829.57,1267.85,829.66z
		 M1191.44,795.07c0.62-0.44,1.17-1.31,1.28-2.05c0.21-1.45,0.08-2.94,0.08-4.42c0-213.1,0-426.21,0-639.31
		c0-0.89,0.11-1.79-0.02-2.65c-0.36-2.34,0.59-3.7,2.61-4.98c16.26-10.33,32.43-20.79,48.63-31.22c5.56-3.58,11.09-7.21,16.64-10.81
		c0.73-0.48,1.51-0.89,2.74-1.61c0.05,1.85,0.14,3.37,0.14,4.88c0.08,76.3,0.15,152.6,0.23,228.89
		c0.05,50.91,0.06,101.83,0.15,152.74c0.21,111.99,0.45,223.97,0.69,335.96c0,0.89-0.1,1.78,0.02,2.65c0.3,2.19-0.64,3.56-2.49,4.67
		c-6.55,3.93-13.05,7.94-19.55,11.94c-20.14,12.4-40.27,24.82-60.42,37.22c-23.77,14.63-47.55,29.23-71.33,43.85
		c-20.39,12.54-40.79,25.08-61.18,37.62c-21.64,13.32-43.28,26.65-64.92,39.97c-20.76,12.78-41.53,25.57-62.29,38.34
		c-17.89,11-35.8,21.97-53.68,32.99c-22.26,13.71-44.49,27.47-66.75,41.18c-22.13,13.63-44.29,27.23-66.43,40.85
		c-16.76,10.31-33.52,20.64-50.29,30.94c-0.86,0.53-1.82,0.88-2.99,1.47c-0.18,0.04-0.3,0.05-0.41,0.03
		c-0.12,0.26-0.33,0.42-0.67,0.72c-0.15,0.03-0.27,0.03-0.37,0c-0.17,0.27-0.45,0.43-0.74,0.58c-0.01-0.23-0.03-0.47,0.15-0.88
		c0.08-0.08,0.18-0.06,0.28-0.01c0.13-0.4,0.34-0.6,0.75-0.84c0.1-0.03,0.22,0.02,0.34,0.11c5.33-4.47,10.68-8.79,16.13-12.96
		c15.78-12.07,31.6-24.08,47.41-36.11c17.09-13.01,34.18-26.02,51.26-39.05c19.18-14.64,38.34-29.31,57.51-43.96
		c15.32-11.71,30.65-23.4,45.98-35.1c18.48-14.1,36.96-28.21,55.45-42.3c15.57-11.86,31.17-23.67,46.73-35.54
		c15.21-11.6,30.39-23.24,45.6-34.85c17.31-13.21,34.64-26.4,51.94-39.61c27.83-21.25,55.64-42.53,83.49-63.76
		C1185.76,798.65,1188.71,797,1191.44,795.07z M971.1,751.4c0.61-0.88,0.94-2.13,0.94-3.21c0.02-171.51,0-343.01-0.1-514.52
		c0-3.12,0.91-5.16,3.29-7.1c21.33-17.38,42.59-34.85,63.86-52.32c13.54-11.11,27.02-22.29,40.57-33.39
		c15.14-12.39,30.36-24.69,45.49-37.08c12.3-10.07,24.51-20.25,36.78-30.36c8.62-7.1,17.27-14.17,26.44-21.69
		c0,205.54,0,410.49,0,615.88c0,40.44-0.04,80.44,0.08,120.44c0.01,3.3-0.97,5.3-3.63,7.29c-15.64,11.72-31.11,23.68-46.66,35.52
		c-18.24,13.9-36.51,27.76-54.75,41.67c-16.6,12.67-33.15,25.41-49.75,38.07c-18.23,13.9-36.53,27.72-54.75,41.63
		c-17.06,13.02-34.03,26.15-51.09,39.18c-15.42,11.78-30.92,23.45-46.36,35.22c-16.61,12.66-33.16,25.4-49.76,38.06
		c-18.23,13.9-36.52,27.72-54.74,41.64c-17.18,13.12-34.27,26.35-51.44,39.47c-16.35,12.49-32.77,24.9-49.14,37.36
		c-5.85,4.45-11.66,8.94-17.49,13.41c-0.58,0.45-1.1,1.04-1.75,1.33c-0.47,0.21-1.11,0.04-1.67,0.04c0.2-0.45,0.33-0.94,0.6-1.34
		c9.41-13.31,18.83-26.61,28.27-39.91c16.06-22.64,32.16-45.25,48.19-67.91c11.96-16.91,23.82-33.89,35.78-50.8
		c13.65-19.3,27.38-38.55,41.05-57.84c7.81-11.03,15.55-22.1,23.34-33.14c11.35-16.07,22.73-32.11,34.08-48.17
		c9.83-13.91,19.6-27.86,29.44-41.75c12.39-17.49,24.86-34.93,37.24-52.43c9.41-13.31,18.72-26.69,28.11-40.02
		C964.72,760.2,968,755.87,971.1,751.4z M653,1188.5c0.03-53.28,0.08-106.56,0.13-159.84c0.04-38.96,0.09-77.93,0.11-116.89
		c0.07-110.1,0.1-220.2,0.21-330.3c0.03-29.49,0.3-58.97,0.37-88.46c0.01-2.65,0.81-4.78,2.24-6.95
		c17.52-26.6,34.99-53.24,52.43-79.9c11.26-17.21,22.41-34.48,33.66-51.69c10.93-16.72,21.93-33.39,32.9-50.08
		c16.53-25.16,33.07-50.31,49.57-75.49c10.38-15.84,20.66-31.75,31.05-47.58c17.71-27.01,35.48-53.98,53.2-80.98
		c10.55-16.08,21.06-32.18,31.57-48.28c8.19-12.54,16.37-25.09,24.73-37.91c0.53-0.73,0.89-1.18,1.24-1.63
		c0.21,0.43,0.56,0.85,0.59,1.29c0.08,1.17,0.03,2.36,0.03,3.54c0,242.63-0.01,485.27,0.05,727.9c0,3.56-0.89,6.36-3.02,9.3
		c-10.16,14.04-19.98,28.33-29.99,42.48c-14.25,20.14-28.59,40.22-42.86,60.36c-9.34,13.18-18.59,26.42-27.9,39.62
		c-15.83,22.45-31.67,44.89-47.52,67.33c-8.47,12-16.95,23.99-25.44,35.97c-14.79,20.84-29.61,41.66-44.38,62.51
		c-12.82,18.1-25.6,36.24-38.39,54.37c-13.8,19.56-27.58,39.14-41.38,58.7c-4.14,5.87-8.35,11.69-12.72,17.79
		C652.64,1191.86,653,1190.14,653,1188.5z M624.31,1185.94c0.34-0.04,0.45,0.13,0.56,0.3
		C624.61,1186.21,624.35,1186.18,624.31,1185.94z M336.65,12.28c3.36,5.12,6.72,10.23,10.07,15.35
		c15.05,22.97,30.1,45.94,45.15,68.9c11.27,17.19,22.53,34.39,33.79,51.58c16.9,25.79,33.8,51.57,50.7,77.36
		c10.46,15.97,20.92,31.94,31.37,47.91c16.33,24.94,32.65,49.89,48.98,74.83c11.67,17.81,23.37,35.6,35.02,53.42
		c16.47,25.19,32.9,50.4,49.35,75.6c2,3.07,3.96,6.18,6.13,9.14c1.83,2.5,2.48,5.14,2.47,8.22c-0.23,64.17-0.42,128.33-0.54,192.5
		c-0.12,62.28-0.16,124.56-0.2,186.84c-0.07,104.34-0.11,208.68-0.17,313.03c0,1.56,0,3.12,0,5.51c-2.3-3.15-4.15-5.59-5.91-8.1
		c-14.97-21.25-29.91-42.52-44.88-63.75c-15.58-22.09-31.19-44.16-46.8-66.24c-12.21-17.27-24.41-34.54-36.64-51.79
		c-12.99-18.34-26.03-36.65-39.02-54.99c-17.15-24.21-34.27-48.44-51.41-72.67c-18.66-26.37-37.32-52.75-55.97-79.12
		c-10.09-14.27-20.1-28.6-30.34-42.76c-2.08-2.87-1.63-5.8-1.77-9.27c0-244.07,0-487.7,0-731.34
		C336.24,12.39,336.45,12.33,336.65,12.28z M114.71,600.66c0-181.09,0-362.18,0-543.28c0-1.61,0-3.22,0-5.62
		c4.05,3.31,7.59,6.21,11.14,9.11c12.42,10.14,24.86,20.26,37.25,30.43c10.81,8.86,21.58,17.78,32.37,26.67
		c10.56,8.7,21.13,17.39,31.71,26.08c11.03,9.06,22.06,18.13,33.11,27.17c10.7,8.76,21.43,17.49,32.11,26.26
		c9.1,7.47,18.16,14.99,27.24,22.48c3.06,2.53,6.06,5.14,9.23,7.53c1.73,1.31,2.45,2.8,2.2,4.9c-0.09,0.73-0.01,1.47-0.01,2.21
		c0,169.43,0.01,338.86-0.08,508.3c0,4.72,0.98,8.52,3.81,12.46c16.3,22.64,32.29,45.52,48.39,68.3
		c15,21.22,30.04,42.42,45.03,63.66c13.2,18.7,26.32,37.46,39.52,56.16c17.02,24.11,34.07,48.2,51.14,72.27
		c15.72,22.17,31.52,44.28,47.22,66.46c11.63,16.42,23.14,32.91,34.74,49.34c13.64,19.32,27.33,38.6,41,57.9
		c1.53,2.16,3.12,4.27,4.55,6.48c0.49,0.76,0.58,1.78,0.96,3.04c-13.15-9.98-25.89-19.61-38.58-29.3
		c-17.29-13.21-34.52-26.49-51.81-39.7c-16.12-12.32-32.27-24.58-48.41-36.88c-15.67-11.93-31.33-23.87-46.99-35.81
		c-17.07-13.01-34.16-26.01-51.21-39.05c-23.59-18.04-47.13-36.14-70.73-54.17c-16.24-12.4-32.57-24.66-48.82-37.05
		c-24.55-18.72-49.05-37.5-73.59-56.23c-10.63-8.12-21.29-16.2-32.21-24.48c-9.72-7.42-19.18-14.66-28.64-21.9
		c-13.07-9.99-26.11-20.04-39.27-29.91c-2.28-1.71-2.44-3.68-2.44-6.11C114.72,725.82,114.71,663.24,114.71,600.66z M38.82,491.23
		c0.07-49.12,0.35-98.24,0.44-147.35c0.14-80.43,0.21-160.86,0.3-241.29c0-1.32,0-2.64,0-4.57c2.55,1.52,4.76,2.75,6.88,4.11
		c19.89,12.83,39.73,25.74,59.7,38.46c3.05,1.94,4.25,3.93,4.25,7.69c-0.11,213.4-0.1,426.8-0.1,640.2c0,1.03,0.04,2.07-0.01,3.1
		c-0.08,1.89,0.44,2.87,2.42,3.95c3.83,2.09,7.2,5.05,10.71,7.72c19.55,14.88,39.1,29.76,58.63,44.67
		c21.64,16.52,43.24,33.08,64.88,49.6c16.96,12.94,33.97,25.82,50.93,38.76c21.53,16.43,43.02,32.9,64.54,49.33
		c18.36,14.01,36.77,27.97,55.12,41.99c22.22,16.98,44.38,34.02,66.59,51c16.13,12.33,32.3,24.61,48.45,36.92
		c20.72,15.79,41.43,31.58,62.14,47.37c8.89,6.78,17.77,13.56,26.78,20.6c0.03,0.17,0.04,0.29,0.02,0.4
		c0.42-0.09,0.67,0.05,0.99,0.44c0.05,0.14,0.06,0.24,0.04,0.34c0.26,0.19,0.39,0.49,0.52,0.81c-0.24,0.01-0.48,0.02-0.86-0.19
		c-0.06-0.09-0.03-0.19,0.02-0.3c-0.43-0.06-0.66-0.23-1-0.53c-0.07-0.04-0.06-0.12-0.02-0.21c-3.36-1.73-6.56-3.46-9.65-5.36
		c-28.17-17.28-56.32-34.58-84.46-51.89c-24.02-14.78-48.02-29.59-72.02-44.39c-28.89-17.8-57.76-35.62-86.66-53.4
		c-31.77-19.55-63.58-39.04-95.35-58.6c-30.52-18.79-60.99-37.67-91.51-56.47c-33.65-20.72-67.33-41.4-100.99-62.1
		c-12.89-7.92-25.75-15.89-38.7-23.69c-2.42-1.46-3.41-3.03-3.4-5.94C38.62,712.01,38.67,601.62,38.82,491.23z M60.16,864.2
		c-4.48-2.53-9.02-4.98-13.48-7.54c-5.09-2.93-10.11-5.97-15.18-8.92c-2.35-1.37-4.76-2.62-7.12-3.96c-1.65-0.93-2.7-2.21-2.52-4.25
		c0.08-0.88,0.01-1.77,0.01-2.66c0-234.36,0-468.72,0-703.08c0-0.89-0.03-1.77,0.01-2.66c0.08-2.23,0.54-2.53,2.64-1.38
		c2.76,1.51,5.47,3.11,8.08,4.86c0.71,0.48,1.11,1.61,1.36,2.52c0.23,0.82,0.05,1.76,0.05,2.64c-0.03,34.83-0.05,69.66-0.11,104.49
		c-0.29,175.3-0.58,350.6-0.9,525.9c-0.03,17.83-0.31,35.66-0.48,53.49c-0.01,1.03-0.08,2.07,0.01,3.1c0.15,1.66,1.1,2.98,2.75,2.89
		c2.13-0.11,3.67,0.99,5.25,1.95c10.02,6.11,19.97,12.32,29.97,18.47c19.74,12.13,39.49,24.23,59.23,36.36
		c14.24,8.76,28.46,17.56,42.7,26.32c24.24,14.9,48.51,29.74,72.73,44.66c20.61,12.69,41.14,25.49,61.75,38.18
		c20.1,12.38,40.25,24.66,60.36,37.02c15.87,9.75,31.68,19.59,47.55,29.35c23.98,14.75,48,29.43,71.98,44.18
		c16.61,10.22,33.19,20.49,49.78,30.75c0.37,0.23,0.71,0.53,1.31,0.95c0.59,0.48,0.73,0.88,0.47,1.62
		c-4.12-1.79-8.09-3.77-11.94-5.94c-4.49-2.53-8.87-5.25-13.31-7.87c-4.93-2.91-9.85-5.82-14.82-8.67
		c-4.97-2.84-10.01-5.56-14.98-8.4c-4.72-2.7-9.37-5.52-14.07-8.27c-4.33-2.53-8.66-5.05-13-7.57c-6.93-4.02-13.85-8.06-20.8-12.04
		c-4.97-2.85-10-5.58-14.97-8.42c-4.72-2.7-9.37-5.53-14.08-8.23c-4.59-2.64-9.26-5.13-13.83-7.8c-8.91-5.2-17.74-10.53-26.66-15.71
		c-6.81-3.95-13.73-7.7-20.55-11.63c-6.45-3.72-12.8-7.61-19.23-11.35c-4.58-2.66-9.27-5.12-13.84-7.78
		c-8.67-5.03-17.26-10.19-25.94-15.19c-4.95-2.85-10.07-5.42-15.03-8.27c-6.7-3.85-13.32-7.87-19.98-11.79
		c-4.32-2.54-8.67-5.05-13-7.57c-4.82-2.8-9.64-5.62-14.47-8.39c-4.97-2.85-9.97-5.64-14.94-8.48c-4.72-2.7-9.4-5.47-14.11-8.17
		c-4.72-2.71-9.48-5.32-14.18-8.06c-8.78-5.13-17.5-10.36-26.3-15.46c-6.69-3.87-13.48-7.56-20.17-11.42
		c-6.57-3.79-13.04-7.77-19.61-11.55c-5.08-2.92-10.32-5.58-15.39-8.52c-8.05-4.66-16.01-9.48-24.05-14.18
		C70.15,869.82,65.15,867.01,60.16,864.2z"/>
	<path class="st2" d="M764.75,1138.25c0.01-0.01,0.02-0.01,0.03-0.02c-0.03-0.07-0.07-0.15-0.13-0.22c-2.03,1.11-3.75,2.2-5.49,3.27
		c-4.84,2.99-9.68,5.96-14.5,8.98c-0.39,0.25-0.58,0.84-0.86,1.27c0.49,0.06,1,0.2,1.47,0.14c0.4-0.05,0.79-0.31,1.16-0.53
		c5.69-3.27,11.4-6.53,17.06-9.85c0.57-0.33,0.93-1.03,1.38-1.84C764.56,1139.19,764.52,1138.83,764.75,1138.25z"/>
	<path class="st2" d="M764.79,1138.23c-0.01,0.01-0.02,0.01-0.03,0.02c-0.24,0.58-0.2,0.94,0.15,1.2c0.01-0.01,0.01-0.02,0.02-0.03
		C764.93,1138.88,764.93,1138.53,764.79,1138.23z"/>
	<path class="st3" d="M621.2,1184.24c-0.04,0.09-0.05,0.17,0.02,0.21c0.34,0.3,0.56,0.46,1,0.53c0.07-0.14,0.2-0.28,0.29-0.36
		c0.02,0.01,0.02,0.03,0.04,0.04c0.02-0.1,0.01-0.2-0.04-0.34c-0.32-0.39-0.57-0.53-0.99-0.44c-0.02,0.15-0.09,0.26-0.25,0.39
		C621.24,1184.26,621.22,1184.25,621.2,1184.24z"/>
	<path class="st3" d="M621.2,1184.24c0.02,0.01,0.04,0.02,0.06,0.03c0.15-0.14,0.22-0.25,0.25-0.39c-0.02,0-0.03,0-0.05,0.01
		C621.38,1183.97,621.26,1184.11,621.2,1184.24z"/>
	<path class="st3" d="M681.54,1183.96c0.02-0.02,0.05-0.04,0.07-0.06c-0.11-0.08-0.23-0.14-0.34-0.11
		c-0.41,0.24-0.62,0.44-0.75,0.84c0.14,0.06,0.27,0.19,0.36,0.27c-0.01,0.02-0.03,0.03-0.04,0.04c0.1,0.03,0.21,0.03,0.37,0
		c0.35-0.3,0.56-0.46,0.67-0.72C681.75,1184.2,681.65,1184.12,681.54,1183.96z"/>
	<path class="st3" d="M681.61,1183.91c-0.02,0.02-0.05,0.04-0.07,0.06c0.11,0.16,0.21,0.24,0.34,0.27c0.01-0.01,0.02-0.03,0.02-0.04
		C681.83,1184.11,681.72,1183.99,681.61,1183.91z"/>
	<path class="st3" d="M622.29,1184.99c-0.03,0-0.04-0.01-0.07-0.01c-0.05,0.1-0.08,0.21-0.02,0.3c0.38,0.2,0.62,0.2,0.86,0.19
		c-0.13-0.31-0.27-0.62-0.52-0.81C622.51,1184.77,622.44,1184.87,622.29,1184.99z"/>
	<path class="st3" d="M622.22,1184.98c0.02,0,0.04,0.01,0.07,0.01c0.15-0.12,0.23-0.22,0.25-0.34c-0.01-0.01-0.02-0.03-0.04-0.04
		C622.42,1184.7,622.29,1184.84,622.22,1184.98z"/>
	<path class="st3" d="M680.5,1184.7c0.01-0.02,0.02-0.04,0.02-0.06c-0.1-0.05-0.2-0.06-0.28,0.01c-0.17,0.42-0.16,0.65-0.15,0.88
		c0.29-0.15,0.57-0.31,0.74-0.58C680.72,1184.92,680.62,1184.84,680.5,1184.7z"/>
	<path class="st3" d="M680.52,1184.64c-0.01,0.02-0.02,0.04-0.02,0.06c0.12,0.15,0.22,0.22,0.34,0.26c0.01-0.02,0.03-0.03,0.04-0.04
		C680.79,1184.82,680.66,1184.7,680.52,1184.64z"/>
	<path class="st3" d="M624.31,1185.94c0.04,0.24,0.3,0.27,0.56,0.3C624.76,1186.08,624.65,1185.91,624.31,1185.94z"/>
	<path class="st3" d="M678.21,1186.07c0.12,0.17,0.23,0.34,0.57,0.29C678.73,1186.13,678.47,1186.1,678.21,1186.07z"/>
</g>
</svg>
