<?xml version="1.0" encoding="utf-8"?>
<!-- Generator: Adobe Adobe Illustrator 24.2.0, SVG Export Plug-In . SVG Version: 6.00 Build 0)  -->
<svg version="1.1"  xmlns="http://www.w3.org/2000/svg" xmlns:xlink="http://www.w3.org/1999/xlink" x="0px" y="0px"
	 viewBox="0 0 3200 1031.76" style="enable-background:new 0 0 2990 1031.76;" xml:space="preserve">
<style type="text/css">
	.st0{fill:url(#SVGID_1_);}
	.st1{fill:#94a3b8;}
	.st2{font-family:'Helvetica-LightOblique';}
	.st3{font-size:591.5781px;}
	.st4{letter-spacing:-31;}
</style>
<g>
	<linearGradient id="SVGID_1_" gradientUnits="userSpaceOnUse" x1="83.8304" y1="-84.8118" x2="1280.8948" y2="921.3466">
		<stop  offset="0" style="stop-color:#FA11E7"/>
		<stop  offset="0.0883" style="stop-color:#F217E7"/>
		<stop  offset="0.2243" style="stop-color:#DD28E9"/>
		<stop  offset="0.3909" style="stop-color:#B945EB"/>
		<stop  offset="0.5817" style="stop-color:#886CED"/>
		<stop  offset="0.7909" style="stop-color:#4A9DF1"/>
		<stop  offset="1" style="stop-color:#05D5F5"/>
	</linearGradient>
	<path class="st0" d="M1190.5,2.06c-4.67-2.72-10.43-2.76-15.13-0.09l-576.16,326.5L23.05,1.97c-4.7-2.66-10.46-2.63-15.13,0.09
		C3.25,4.78,0.38,9.78,0.38,15.18V678C0.15,679.06,0,680.14,0,681.25c0,5.43,2.91,10.46,7.62,13.16l583.65,335.33
		c2.34,1.35,4.95,2.02,7.56,2.02c2.61,0,5.22-0.67,7.56-2.02l581.95-334.36c0.72-0.28,1.44-0.6,2.12-1
		c4.69-2.71,7.58-7.72,7.58-13.14V15.18C1198.04,9.78,1195.17,4.78,1190.5,2.06z M1167.68,41.23v613.79L629.84,346.01L1167.68,41.23
		z M568.39,345.9L30.74,654.8V41.23L568.39,345.9z M598.83,999.07L45.84,681.36l553.17-317.82L1152,681.25L598.83,999.07z"/>
</g>
<text transform="matrix(1 0 0 1 1500.5654 663.1823)" class="st1 st2 st3 st4">JeCFe</text>
</svg>